<?xml version="1.0" encoding="UTF-8" standalone="no"?>
<svg
   xmlns:dc="http://purl.org/dc/elements/1.1/"
   xmlns:cc="http://creativecommons.org/ns#"
   xmlns:rdf="http://www.w3.org/1999/02/22-rdf-syntax-ns#"
   xmlns:svg="http://www.w3.org/2000/svg"
   xmlns="http://www.w3.org/2000/svg"
   xmlns:xlink="http://www.w3.org/1999/xlink"
   xmlns:sodipodi="http://sodipodi.sourceforge.net/DTD/sodipodi-0.dtd"
   xmlns:inkscape="http://www.inkscape.org/namespaces/inkscape"
   version="1.1"
   id="Layer_2"
   x="0px"
   y="0px"
   width="400.66699"
   height="400.66599"
   viewBox="0 0 400.667 400.666"
   enable-background="new 0 0 400.667 400.666"
   xml:space="preserve"
   inkscape:version="0.91 r13725"
   sodipodi:docname="indicator_foreground (copy).svg"><sodipodi:namedview
     pagecolor="#ffffff"
     bordercolor="#666666"
     borderopacity="1"
     objecttolerance="10"
     gridtolerance="10"
     guidetolerance="10"
     inkscape:pageopacity="0"
     inkscape:pageshadow="2"
     inkscape:window-width="1912"
     inkscape:window-height="1146"
     id="namedview13"
     showgrid="false"
     inkscape:zoom="1.1780386"
     inkscape:cx="290.76344"
     inkscape:cy="234.058"
     inkscape:window-x="0"
     inkscape:window-y="1"
     inkscape:window-maximized="0"
     inkscape:current-layer="Layer_2" /><metadata
     id="metadata111"><rdf:RDF><cc:Work
         rdf:about=""><dc:format>image/svg+xml</dc:format><dc:type
           rdf:resource="http://purl.org/dc/dcmitype/StillImage" /><dc:title /></cc:Work></rdf:RDF></metadata><defs
     id="defs109"><radialGradient
       gradientTransform="matrix(1.6514344,0,0,1.6514344,-84.144237,-60.123606)"
       gradientUnits="userSpaceOnUse"
       r="72.725906"
       fy="92.274101"
       fx="129.2859"
       cy="92.274101"
       cx="129.2859"
       id="radialGradient5742-9-3"
       xlink:href="#linearGradient5132" /><linearGradient
       id="linearGradient5132"><stop
         style="stop-color:#969696;stop-opacity:1"
         offset="0"
         id="stop5134" /><stop
         style="stop-color:#000000;stop-opacity:1"
         offset="1"
         id="stop5136" /></linearGradient><filter
       inkscape:collect="always"
       style="color-interpolation-filters:sRGB"
       id="filter8276"
       x="-0.10858973"
       width="1.2171795"
       y="-0.053853765"
       height="1.1077075"><feGaussianBlur
         inkscape:collect="always"
         stdDeviation="2.0013282"
         id="feGaussianBlur8278" /></filter></defs><g
     id="airspeedIndicatorHand"
     style="display:inline"
     transform="matrix(2.2213481,0,0,2.2213481,-86.85814,-4.9720701)" /><g
     id="airspeedIndicatorFg"
     style="display:inline"
     transform="matrix(2.2213481,0,0,2.2213481,-86.85814,-4.9720701)" /><g
     transform="matrix(1.0066128,0.46939124,-0.46939124,1.0066128,-378.3857,57.565217)"
     style="display:inline"
     id="g8280"
     inkscape:transform-center-x="1.8527212"
     inkscape:transform-center-y="51.266469"><path
       id="path6476"
       d="m 577.39258,-227 c 20.58736,23.07106 33.10899,53.49384 33.10937,86.84766 0,0 0.3248,2.34179 5.5625,2.34179 5.23772,0 5.56056,-2.34179 5.56056,-2.34179 -4.3e-4,-32.73413 -11.116,-62.86471 -29.76562,-86.84766 l -14.46681,0 z"
       style="display:inline;opacity:1;fill:#000000;fill-opacity:1;stroke:none;stroke-width:0.98048699;stroke-miterlimit:4;stroke-dasharray:none;stroke-dashoffset:0;stroke-opacity:1;filter:url(#filter8276)"
       inkscape:connector-curvature="0" /><g
       id="g8089"><path
         style="display:inline;opacity:1;fill:#e22d03;fill-opacity:1;stroke:none;stroke-width:0.98048699;stroke-miterlimit:4;stroke-dasharray:none;stroke-dashoffset:0;stroke-opacity:1"
         d="m 577.39258,-227 c 20.58736,23.07106 33.10899,53.49384 33.10937,86.84766 0,0 0.3248,2.34179 5.5625,2.34179 5.23772,0 5.56056,-2.34179 5.56056,-2.34179 -4.3e-4,-32.73413 -11.116,-62.86471 -29.76562,-86.84766 l -14.46681,0 z"
         id="path6295"
         inkscape:connector-curvature="0"
         inkscape:transform-center-x="-14.239642"
         inkscape:transform-center-y="44.59375" /><g
         id="g8082"><path
           inkscape:connector-curvature="0"
           id="path6450"
           d="m 610.03125,-180.57867 c -1.02979,0.22767 -1.72942,0.97022 -2.09936,2.2282 -0.36784,1.25194 -0.34503,2.8177 0.0709,4.69906 0.41596,1.88136 1.05589,3.31313 1.91723,4.29331 0.86463,0.97944 1.81119,1.35376 2.84098,1.12608 1.02651,-0.22695 1.72421,-0.96481 2.09206,-2.21674 0.36667,-1.25728 0.34335,-2.82537 -0.0714,-4.70141 -0.41596,-1.88136 -1.05537,-3.31079 -1.91672,-4.29096 -0.86254,-0.98549 -1.80717,-1.3645 -2.83368,-1.13754 z m 0.37611,1.71038 c 0.5469,-0.12092 1.06795,0.18363 1.56283,0.91238 0.49737,0.7282 0.90009,1.78197 1.20497,3.16092 0.3038,1.37409 0.38187,2.49491 0.23785,3.36492 -0.14152,0.86945 -0.48561,1.36529 -1.03251,1.48621 -0.54691,0.12091 -1.07002,-0.18319 -1.56986,-0.91084 -0.49737,-0.7282 -0.89676,-1.77798 -1.20056,-3.15207 -0.30488,-1.37895 -0.38628,-2.50377 -0.24227,-3.37377 0.14649,-0.87056 0.49265,-1.36684 1.03955,-1.48775 z"
           style="font-style:normal;font-weight:normal;font-size:medium;line-height:125%;font-family:sans-serif;letter-spacing:0px;word-spacing:0px;fill:#000000;fill-opacity:1;stroke:none;stroke-width:1px;stroke-linecap:butt;stroke-linejoin:miter;stroke-opacity:1" /><g
           transform="matrix(0.97641982,-0.21588037,0.21588037,0.97641982,74.400348,116.98942)"
           id="text6348"
           style="font-style:normal;font-weight:normal;font-size:16.7206707px;line-height:125%;font-family:sans-serif;letter-spacing:0px;word-spacing:0px;fill:#000000;fill-opacity:1;stroke:none;stroke-width:1px;stroke-linecap:butt;stroke-linejoin:miter;stroke-opacity:1"><path
             inkscape:connector-curvature="0"
             id="path6458"
             d="m 583.76409,-161.24438 7.00505,0 0,1.38795 -5.35584,0 0,3.59233 4.83331,0 0,1.38794 -4.83331,0 0,5.82121 -1.64921,0 0,-12.18943 z" /></g><g
           transform="matrix(0.97641982,-0.21588037,0.21588037,0.97641982,74.400348,116.98942)"
           id="text6352"
           style="font-style:normal;font-weight:normal;font-size:16.7206707px;line-height:125%;font-family:sans-serif;letter-spacing:0px;word-spacing:0px;fill:#000000;fill-opacity:1;stroke:none;stroke-width:1px;stroke-linecap:butt;stroke-linejoin:miter;stroke-opacity:1"><path
             inkscape:connector-curvature="0"
             id="path6455"
             d="m 583.76409,-148.11374 7.00505,0 0,1.38795 -5.35584,0 0,3.59233 4.83331,0 0,1.38795 -4.83331,0 0,5.82121 -1.64921,0 0,-12.18944 z" /></g></g></g></g></svg>