<?xml version="1.0" encoding="UTF-8" standalone="no"?>
<svg
   xmlns:osb="http://www.openswatchbook.org/uri/2009/osb"
   xmlns:dc="http://purl.org/dc/elements/1.1/"
   xmlns:cc="http://creativecommons.org/ns#"
   xmlns:rdf="http://www.w3.org/1999/02/22-rdf-syntax-ns#"
   xmlns:svg="http://www.w3.org/2000/svg"
   xmlns="http://www.w3.org/2000/svg"
   xmlns:sodipodi="http://sodipodi.sourceforge.net/DTD/sodipodi-0.dtd"
   xmlns:inkscape="http://www.inkscape.org/namespaces/inkscape"
   version="1.1"
   id="Layer_2"
   x="0px"
   y="0px"
   width="400.66699"
   height="400.66599"
   viewBox="0 0 400.667 400.666"
   enable-background="new 0 0 400.667 400.666"
   xml:space="preserve"
   inkscape:version="0.91 r13725"
   sodipodi:docname="attitude_hand_10000ft.svg"><metadata
     id="metadata111"><rdf:RDF><cc:Work
         rdf:about=""><dc:format>image/svg+xml</dc:format><dc:type
           rdf:resource="http://purl.org/dc/dcmitype/StillImage" /><dc:title /></cc:Work></rdf:RDF></metadata><defs
     id="defs109"><linearGradient
       id="SVGID_18_-1"
       gradientUnits="userSpaceOnUse"
       x1="148.1084"
       y1="142.3994"
       x2="163.70171"
       y2="169.4077"><stop
         offset="0"
         style="stop-color:#404040"
         id="stop11209" /><stop
         offset="1"
         style="stop-color:#000000"
         id="stop11211" /></linearGradient><linearGradient
       y2="169.4077"
       x2="163.70171"
       y1="142.3994"
       x1="148.1084"
       gradientUnits="userSpaceOnUse"
       id="linearGradient6221"><stop
         id="stop6223"
         style="stop-color:#404040"
         offset="0" /><stop
         id="stop6225"
         style="stop-color:#202020;stop-opacity:1"
         offset="1" /></linearGradient><pattern
       y="0"
       x="0"
       height="6"
       width="6"
       patternUnits="userSpaceOnUse"
       id="EMFhbasepattern" /><pattern
       y="0"
       x="0"
       height="6"
       width="6"
       patternUnits="userSpaceOnUse"
       id="EMFhbasepattern-7" /><linearGradient
       id="linearGradient5786"
       osb:paint="gradient"><stop
         style="stop-color:#363636;stop-opacity:1;"
         offset="0"
         id="stop5788" /><stop
         style="stop-color:#000000;stop-opacity:1;"
         offset="1"
         id="stop5790" /></linearGradient><linearGradient
       id="linearGradient8979"
       gradientUnits="userSpaceOnUse"
       x1="148.1084"
       y1="142.3994"
       x2="163.70171"
       y2="169.4077"><stop
         offset="0"
         style="stop-color:#2d2d2d;stop-opacity:1"
         id="stop8981" /><stop
         offset="1"
         style="stop-color:#000000"
         id="stop8983" /></linearGradient><filter
       inkscape:collect="always"
       style="color-interpolation-filters:sRGB"
       id="filter6375"
       x="-0.12593441"
       width="1.2518688"
       y="-0.029650692"
       height="1.0593014"><feGaussianBlur
         inkscape:collect="always"
         stdDeviation="2.3857802"
         id="feGaussianBlur6377" /></filter></defs><sodipodi:namedview
     pagecolor="#ffffff"
     bordercolor="#666666"
     borderopacity="1"
     objecttolerance="10"
     gridtolerance="10"
     guidetolerance="10"
     inkscape:pageopacity="0"
     inkscape:pageshadow="2"
     inkscape:window-width="1920"
     inkscape:window-height="1142"
     id="namedview107"
     showgrid="false"
     inkscape:zoom="2.0000002"
     inkscape:cx="229.88183"
     inkscape:cy="243.2617"
     inkscape:window-x="0"
     inkscape:window-y="0"
     inkscape:window-maximized="1"
     inkscape:current-layer="Layer_2"
     showguides="false"
     inkscape:guide-bbox="true"><sodipodi:guide
       position="200.33204,362.05861"
       orientation="1,0"
       id="guide4595" /><sodipodi:guide
       position="361.57032,200.66407"
       orientation="0,1"
       id="guide4597" /><sodipodi:guide
       position="200.58204,361.66408"
       orientation="0,1"
       id="guide4601" /></sodipodi:namedview><g
     transform="matrix(1.1106764,0,0,1.1106764,-729.66742,406.75472)"
     style="display:inline"
     id="g6367"
     inkscape:transform-center-y="-29.871117"
     inkscape:transform-center-x="-1.8868564e-05"><path
       style="display:inline;opacity:1;fill:#000000;fill-opacity:1;stroke:none;stroke-width:0.66157639;stroke-linecap:butt;stroke-linejoin:round;stroke-miterlimit:4;stroke-dasharray:none;stroke-opacity:1;filter:url(#filter6375)"
       d="m 824.11249,-309.61785 11.8393,22.43157 0,33.34398 -2.3776,3.10114 0,53.97275 c -4.50184,1.58858 -7.51455,5.84103 -7.5203,10.61493 0.005,4.80193 3.05255,9.07317 7.5914,10.64079 -6.3513,18.36766 -12.7019,36.73554 -19.0525,55.10336 7.3077,2.55511 14.9903,3.87394 22.7319,3.90227 7.7423,-0.0258 15.426,-1.34253 22.7352,-3.8958 l -19.0558,-55.10983 c 4.53885,-1.56762 7.58606,-5.83886 7.5914,-10.64079 -0.006,-4.7739 -3.01846,-9.02635 -7.5203,-10.61493 l 0,-53.97275 -2.3776,-3.10114 0,-33.34398 11.83961,-22.4317 z"
       id="path6361"
       inkscape:connector-curvature="0"
       inkscape:transform-center-y="-26.9083"
       sodipodi:nodetypes="cccccccccccccccccc" /><path
       sodipodi:nodetypes="cccccccccccccccccc"
       inkscape:transform-center-y="-26.9083"
       inkscape:connector-curvature="0"
       id="path11883"
       d="m 824.11249,-309.61785 11.8393,22.43157 0,33.34398 -2.3776,3.10114 0,53.97275 c -4.50184,1.58858 -7.51455,5.84103 -7.5203,10.61493 0.005,4.80193 3.05255,9.07317 7.5914,10.64079 -6.3513,18.36766 -12.7019,36.73554 -19.0525,55.10336 7.3077,2.55511 14.9903,3.87394 22.7319,3.90227 7.7423,-0.0258 15.426,-1.34253 22.7352,-3.8958 l -19.0558,-55.10983 c 4.53885,-1.56762 7.58606,-5.83886 7.5914,-10.64079 -0.006,-4.7739 -3.01846,-9.02635 -7.5203,-10.61493 l 0,-53.97275 -2.3776,-3.10114 0,-33.34398 11.83961,-22.4317 z"
       style="display:inline;opacity:1;fill:#ffffff;fill-opacity:1;stroke:#555555;stroke-width:0.75;stroke-linecap:butt;stroke-linejoin:round;stroke-miterlimit:4;stroke-dasharray:none;stroke-opacity:1" /></g></svg>