<?xml version="1.0" encoding="UTF-8" standalone="no"?>
<svg
   xmlns:osb="http://www.openswatchbook.org/uri/2009/osb"
   xmlns:dc="http://purl.org/dc/elements/1.1/"
   xmlns:cc="http://creativecommons.org/ns#"
   xmlns:rdf="http://www.w3.org/1999/02/22-rdf-syntax-ns#"
   xmlns:svg="http://www.w3.org/2000/svg"
   xmlns="http://www.w3.org/2000/svg"
   xmlns:xlink="http://www.w3.org/1999/xlink"
   xmlns:sodipodi="http://sodipodi.sourceforge.net/DTD/sodipodi-0.dtd"
   xmlns:inkscape="http://www.inkscape.org/namespaces/inkscape"
   version="1.1"
   id="Layer_2"
   x="0px"
   y="0px"
   width="400.667px"
   height="400.666px"
   viewBox="0 0 400.667 400.666"
   enable-background="new 0 0 400.667 400.666"
   xml:space="preserve"
   inkscape:version="0.91 r13725"
   sodipodi:docname="heading_yaw.svg"><metadata
     id="metadata213"><rdf:RDF><cc:Work
         rdf:about=""><dc:format>image/svg+xml</dc:format><dc:type
           rdf:resource="http://purl.org/dc/dcmitype/StillImage" /></cc:Work></rdf:RDF></metadata><defs
     id="defs211"><linearGradient
       id="linearGradient5786"
       osb:paint="gradient"><stop
         style="stop-color:#363636;stop-opacity:1;"
         offset="0"
         id="stop5788" /><stop
         style="stop-color:#000000;stop-opacity:1;"
         offset="1"
         id="stop5790" /></linearGradient><radialGradient
       gradientTransform="matrix(2.2213482,0,0,2.2213482,-430.76591,-376.75254)"
       inkscape:collect="always"
       xlink:href="#linearGradient5927"
       id="radialGradient5933"
       cx="284.28571"
       cy="259.72156"
       fx="284.28571"
       fy="259.72156"
       r="69.336487"
       gradientUnits="userSpaceOnUse" /><linearGradient
       inkscape:collect="always"
       id="linearGradient5927"><stop
         style="stop-color:#000000;stop-opacity:1;"
         offset="0"
         id="stop5929" /><stop
         style="stop-color:#323232;stop-opacity:1"
         offset="1"
         id="stop5931" /></linearGradient><linearGradient
       y2="187.36218"
       x2="191.42857"
       y1="109.9982"
       x1="106.39748"
       gradientUnits="userSpaceOnUse"
       id="linearGradient5945-5"
       xlink:href="#linearGradient5786-4"
       inkscape:collect="always"
       gradientTransform="matrix(0.53288631,0,0,0.53288631,182.27606,159.87884)" /><linearGradient
       osb:paint="gradient"
       id="linearGradient5786-4"><stop
         id="stop5788-8"
         offset="0"
         style="stop-color:#2d2d2d;stop-opacity:1" /><stop
         id="stop5790-0"
         offset="1"
         style="stop-color:#000000;stop-opacity:1;" /></linearGradient></defs><sodipodi:namedview
     pagecolor="#ffffff"
     bordercolor="#666666"
     borderopacity="1"
     objecttolerance="10"
     gridtolerance="10"
     guidetolerance="10"
     inkscape:pageopacity="0"
     inkscape:pageshadow="2"
     inkscape:window-width="1920"
     inkscape:window-height="1142"
     id="namedview209"
     showgrid="false"
     inkscape:zoom="1.1780386"
     inkscape:cx="181.42805"
     inkscape:cy="257.16467"
     inkscape:window-x="0"
     inkscape:window-y="0"
     inkscape:window-maximized="1"
     inkscape:current-layer="Layer_2" /><line
     fill="none"
     stroke="#FFFFFF"
     stroke-width="2"
     stroke-miterlimit="10"
     x1="200.333"
     y1="350.099"
     x2="200.333"
     y2="326.667"
     id="line5" /><line
     fill="none"
     stroke="#FFFFFF"
     stroke-width="2"
     stroke-miterlimit="10"
     x1="213.416"
     y1="349.528"
     x2="212.023"
     y2="333.609"
     id="line7" /><line
     fill="none"
     stroke="#FFFFFF"
     stroke-width="2"
     stroke-miterlimit="10"
     x1="239.182"
     y1="344.985"
     x2="235.046"
     y2="329.55"
     id="line9" /><line
     fill="none"
     stroke="#FFFFFF"
     stroke-width="2"
     stroke-miterlimit="10"
     x1="263.768"
     y1="336.036"
     x2="257.015"
     y2="321.554"
     id="line11" /><line
     fill="none"
     stroke="#FFFFFF"
     stroke-width="2"
     stroke-miterlimit="10"
     x1="286.427"
     y1="322.955"
     x2="277.261"
     y2="309.865"
     id="line13" /><line
     fill="none"
     stroke="#FFFFFF"
     stroke-width="2"
     stroke-miterlimit="10"
     x1="306.47"
     y1="306.137"
     x2="295.17"
     y2="294.837"
     id="line15" /><line
     fill="none"
     stroke="#FFFFFF"
     stroke-width="2"
     stroke-miterlimit="10"
     x1="323.289"
     y1="286.094"
     x2="310.198"
     y2="276.929"
     id="line17" /><line
     fill="none"
     stroke="#FFFFFF"
     stroke-width="2"
     stroke-miterlimit="10"
     x1="336.371"
     y1="263.436"
     x2="321.887"
     y2="256.683"
     id="line19" /><line
     fill="none"
     stroke="#FFFFFF"
     stroke-width="2"
     stroke-miterlimit="10"
     x1="345.32"
     y1="238.85"
     x2="329.883"
     y2="234.714"
     id="line21" /><line
     fill="none"
     stroke="#FFFFFF"
     stroke-width="2"
     stroke-miterlimit="10"
     x1="349.864"
     y1="213.083"
     x2="333.943"
     y2="211.691"
     id="line23" /><line
     fill="none"
     stroke="#FFFFFF"
     stroke-width="2"
     stroke-miterlimit="10"
     x1="349.864"
     y1="186.918"
     x2="333.944"
     y2="188.313"
     id="line25" /><line
     fill="none"
     stroke="#FFFFFF"
     stroke-width="2"
     stroke-miterlimit="10"
     x1="345.321"
     y1="161.151"
     x2="329.885"
     y2="165.289"
     id="line27" /><line
     fill="none"
     stroke="#FFFFFF"
     stroke-width="2"
     stroke-miterlimit="10"
     x1="336.373"
     y1="136.565"
     x2="321.89"
     y2="143.32"
     id="line29" /><line
     fill="none"
     stroke="#FFFFFF"
     stroke-width="2"
     stroke-miterlimit="10"
     x1="323.291"
     y1="113.906"
     x2="310.202"
     y2="123.073"
     id="line31" /><line
     fill="none"
     stroke="#FFFFFF"
     stroke-width="2"
     stroke-miterlimit="10"
     x1="306.472"
     y1="93.863"
     x2="295.174"
     y2="105.163"
     id="line33" /><line
     fill="none"
     stroke="#FFFFFF"
     stroke-width="2"
     stroke-miterlimit="10"
     x1="286.429"
     y1="77.045"
     x2="277.265"
     y2="90.135"
     id="line35" /><line
     fill="none"
     stroke="#FFFFFF"
     stroke-width="2"
     stroke-miterlimit="10"
     x1="263.771"
     y1="63.962"
     x2="257.019"
     y2="78.446"
     id="line37" /><line
     fill="none"
     stroke="#FFFFFF"
     stroke-width="2"
     stroke-miterlimit="10"
     x1="239.185"
     y1="55.013"
     x2="235.05"
     y2="70.449"
     id="line39" /><line
     fill="none"
     stroke="#FFFFFF"
     stroke-width="2"
     stroke-miterlimit="10"
     x1="213.418"
     y1="50.469"
     x2="212.027"
     y2="66.389"
     id="line41" /><line
     fill="none"
     stroke="#FFFFFF"
     stroke-width="2"
     stroke-miterlimit="10"
     x1="187.254"
     y1="50.469"
     x2="188.648"
     y2="66.388"
     id="line43" /><line
     fill="none"
     stroke="#FFFFFF"
     stroke-width="2"
     stroke-miterlimit="10"
     x1="161.488"
     y1="55.012"
     x2="165.625"
     y2="70.447"
     id="line45" /><line
     fill="none"
     stroke="#FFFFFF"
     stroke-width="2"
     stroke-miterlimit="10"
     x1="136.901"
     y1="63.96"
     x2="143.656"
     y2="78.443"
     id="line47" /><line
     fill="none"
     stroke="#FFFFFF"
     stroke-width="2"
     stroke-miterlimit="10"
     x1="114.242"
     y1="77.042"
     x2="123.409"
     y2="90.131"
     id="line49" /><line
     fill="none"
     stroke="#FFFFFF"
     stroke-width="2"
     stroke-miterlimit="10"
     x1="94.199"
     y1="93.86"
     x2="105.499"
     y2="105.159"
     id="line51" /><line
     fill="none"
     stroke="#FFFFFF"
     stroke-width="2"
     stroke-miterlimit="10"
     x1="77.38"
     y1="113.903"
     x2="90.47"
     y2="123.067"
     id="line53" /><line
     fill="none"
     stroke="#FFFFFF"
     stroke-width="2"
     stroke-miterlimit="10"
     x1="64.298"
     y1="136.562"
     x2="78.781"
     y2="143.314"
     id="line55" /><line
     fill="none"
     stroke="#FFFFFF"
     stroke-width="2"
     stroke-miterlimit="10"
     x1="55.349"
     y1="161.148"
     x2="70.785"
     y2="165.283"
     id="line57" /><line
     fill="none"
     stroke="#FFFFFF"
     stroke-width="2"
     stroke-miterlimit="10"
     x1="50.805"
     y1="186.915"
     x2="66.724"
     y2="188.306"
     id="line59" /><line
     fill="none"
     stroke="#FFFFFF"
     stroke-width="2"
     stroke-miterlimit="10"
     x1="50.804"
     y1="213.079"
     x2="66.723"
     y2="211.685"
     id="line61" /><line
     fill="none"
     stroke="#FFFFFF"
     stroke-width="2"
     stroke-miterlimit="10"
     x1="55.347"
     y1="238.845"
     x2="70.783"
     y2="234.709"
     id="line63" /><line
     fill="none"
     stroke="#FFFFFF"
     stroke-width="2"
     stroke-miterlimit="10"
     x1="64.295"
     y1="263.432"
     x2="78.778"
     y2="256.678"
     id="line65" /><line
     fill="none"
     stroke="#FFFFFF"
     stroke-width="2"
     stroke-miterlimit="10"
     x1="77.376"
     y1="286.091"
     x2="90.466"
     y2="276.925"
     id="line67" /><line
     fill="none"
     stroke="#FFFFFF"
     stroke-width="2"
     stroke-miterlimit="10"
     x1="94.194"
     y1="306.135"
     x2="105.494"
     y2="294.834"
     id="line69" /><line
     fill="none"
     stroke="#FFFFFF"
     stroke-width="2"
     stroke-miterlimit="10"
     x1="114.237"
     y1="322.954"
     x2="123.402"
     y2="309.863"
     id="line71" /><line
     fill="none"
     stroke="#FFFFFF"
     stroke-width="2"
     stroke-miterlimit="10"
     x1="136.895"
     y1="336.037"
     x2="143.648"
     y2="321.553"
     id="line73" /><line
     fill="none"
     stroke="#FFFFFF"
     stroke-width="2"
     stroke-miterlimit="10"
     x1="161.481"
     y1="344.986"
     x2="165.617"
     y2="329.549"
     id="line75" /><line
     fill="none"
     stroke="#FFFFFF"
     stroke-width="2"
     stroke-miterlimit="10"
     x1="187.248"
     y1="349.53"
     x2="188.64"
     y2="333.61"
     id="line77" /><line
     fill="none"
     stroke="#FFFFFF"
     stroke-width="2"
     stroke-miterlimit="10"
     x1="226.398"
     y1="347.819"
     x2="222.33"
     y2="324.742"
     id="line79" /><line
     fill="none"
     stroke="#FFFFFF"
     stroke-width="2"
     stroke-miterlimit="10"
     x1="251.67"
     y1="341.047"
     x2="243.657"
     y2="319.028"
     id="line81" /><line
     fill="none"
     stroke="#FFFFFF"
     stroke-width="2"
     stroke-miterlimit="10"
     x1="275.383"
     y1="329.99"
     x2="263.667"
     y2="309.697"
     id="line83" /><line
     fill="none"
     stroke="#FFFFFF"
     stroke-width="2"
     stroke-miterlimit="10"
     x1="296.816"
     y1="314.983"
     x2="281.754"
     y2="297.033"
     id="line85" /><line
     fill="none"
     stroke="#FFFFFF"
     stroke-width="2"
     stroke-miterlimit="10"
     x1="315.317"
     y1="296.483"
     x2="297.367"
     y2="281.42"
     id="line87" /><line
     fill="none"
     stroke="#FFFFFF"
     stroke-width="2"
     stroke-miterlimit="10"
     x1="330.324"
     y1="275.05"
     x2="310.031"
     y2="263.333"
     id="line89" /><line
     fill="none"
     stroke="#FFFFFF"
     stroke-width="2"
     stroke-miterlimit="10"
     x1="341.381"
     y1="251.337"
     x2="319.363"
     y2="243.323"
     id="line91" /><line
     fill="none"
     stroke="#FFFFFF"
     stroke-width="2"
     stroke-miterlimit="10"
     x1="348.153"
     y1="226.065"
     x2="325.078"
     y2="221.996"
     id="line93" /><line
     fill="none"
     stroke="#FFFFFF"
     stroke-width="2"
     stroke-miterlimit="10"
     x1="350.433"
     y1="200"
     x2="327.001"
     y2="200"
     id="line95" /><line
     fill="none"
     stroke="#FFFFFF"
     stroke-width="2"
     stroke-miterlimit="10"
     x1="348.153"
     y1="173.936"
     x2="325.078"
     y2="178.004"
     id="line97" /><line
     fill="none"
     stroke="#FFFFFF"
     stroke-width="2"
     stroke-miterlimit="10"
     x1="341.381"
     y1="148.664"
     x2="319.363"
     y2="156.677"
     id="line99" /><line
     fill="none"
     stroke="#FFFFFF"
     stroke-width="2"
     stroke-miterlimit="10"
     x1="330.324"
     y1="124.951"
     x2="310.032"
     y2="136.667"
     id="line101" /><line
     fill="none"
     stroke="#FFFFFF"
     stroke-width="2"
     stroke-miterlimit="10"
     x1="315.317"
     y1="103.519"
     x2="297.368"
     y2="118.58"
     id="line103" /><line
     fill="none"
     stroke="#FFFFFF"
     stroke-width="2"
     stroke-miterlimit="10"
     x1="296.816"
     y1="85.018"
     x2="281.755"
     y2="102.967"
     id="line105" /><line
     fill="none"
     stroke="#FFFFFF"
     stroke-width="2"
     stroke-miterlimit="10"
     x1="275.384"
     y1="70.011"
     x2="263.668"
     y2="90.303"
     id="line107" /><line
     fill="none"
     stroke="#FFFFFF"
     stroke-width="2"
     stroke-miterlimit="10"
     x1="251.672"
     y1="58.954"
     x2="243.658"
     y2="80.971"
     id="line109" /><line
     fill="none"
     stroke="#FFFFFF"
     stroke-width="2"
     stroke-miterlimit="10"
     x1="226.4"
     y1="52.182"
     x2="222.331"
     y2="75.256"
     id="line111" /><line
     fill="none"
     stroke="#FFFFFF"
     stroke-width="2"
     stroke-miterlimit="10"
     x1="200.335"
     y1="49.901"
     x2="200.334"
     y2="73.332"
     id="line113" /><line
     fill="none"
     stroke="#FFFFFF"
     stroke-width="2"
     stroke-miterlimit="10"
     x1="174.271"
     y1="52.181"
     x2="178.339"
     y2="75.256"
     id="line115" /><line
     fill="none"
     stroke="#FFFFFF"
     stroke-width="2"
     stroke-miterlimit="10"
     x1="148.999"
     y1="58.953"
     x2="157.012"
     y2="80.971"
     id="line117" /><line
     fill="none"
     stroke="#FFFFFF"
     stroke-width="2"
     stroke-miterlimit="10"
     x1="125.286"
     y1="70.01"
     x2="137.001"
     y2="90.302"
     id="line119" /><line
     fill="none"
     stroke="#FFFFFF"
     stroke-width="2"
     stroke-miterlimit="10"
     x1="103.853"
     y1="85.017"
     x2="118.915"
     y2="102.966"
     id="line121" /><line
     fill="none"
     stroke="#FFFFFF"
     stroke-width="2"
     stroke-miterlimit="10"
     x1="85.352"
     y1="103.517"
     x2="103.302"
     y2="118.579"
     id="line123" /><line
     fill="none"
     stroke="#FFFFFF"
     stroke-width="2"
     stroke-miterlimit="10"
     x1="70.345"
     y1="124.949"
     x2="90.638"
     y2="136.665"
     id="line125" /><line
     fill="none"
     stroke="#FFFFFF"
     stroke-width="2"
     stroke-miterlimit="10"
     x1="59.288"
     y1="148.662"
     x2="81.307"
     y2="156.676"
     id="line127" /><line
     fill="none"
     stroke="#FFFFFF"
     stroke-width="2"
     stroke-miterlimit="10"
     x1="52.515"
     y1="173.934"
     x2="75.592"
     y2="178.002"
     id="line129" /><line
     fill="none"
     stroke="#FFFFFF"
     stroke-width="2"
     stroke-miterlimit="10"
     x1="50.235"
     y1="199.999"
     x2="73.667"
     y2="199.998"
     id="line131" /><line
     fill="none"
     stroke="#FFFFFF"
     stroke-width="2"
     stroke-miterlimit="10"
     x1="52.515"
     y1="226.063"
     x2="75.591"
     y2="221.993"
     id="line133" /><line
     fill="none"
     stroke="#FFFFFF"
     stroke-width="2"
     stroke-miterlimit="10"
     x1="59.287"
     y1="251.335"
     x2="81.306"
     y2="243.32"
     id="line135" /><line
     fill="none"
     stroke="#FFFFFF"
     stroke-width="2"
     stroke-miterlimit="10"
     x1="70.343"
     y1="275.048"
     x2="90.637"
     y2="263.331"
     id="line137" /><line
     fill="none"
     stroke="#FFFFFF"
     stroke-width="2"
     stroke-miterlimit="10"
     x1="85.35"
     y1="296.481"
     x2="103.301"
     y2="281.417"
     id="line139" /><line
     fill="none"
     stroke="#FFFFFF"
     stroke-width="2"
     stroke-miterlimit="10"
     x1="103.851"
     y1="314.982"
     x2="118.914"
     y2="297.03"
     id="line141" /><line
     fill="none"
     stroke="#FFFFFF"
     stroke-width="2"
     stroke-miterlimit="10"
     x1="125.284"
     y1="329.989"
     x2="137"
     y2="309.695"
     id="line143" /><line
     fill="none"
     stroke="#FFFFFF"
     stroke-width="2"
     stroke-miterlimit="10"
     x1="148.997"
     y1="341.047"
     x2="157.01"
     y2="319.026"
     id="line145" /><line
     fill="none"
     stroke="#FFFFFF"
     stroke-width="2"
     stroke-miterlimit="10"
     x1="174.269"
     y1="347.819"
     x2="178.337"
     y2="324.741"
     id="line147" /><g
     id="g149"><path
       fill="#FFFFFF"
       stroke="#FFFFFF"
       stroke-miterlimit="10"
       d="M192.637,101.333V79.786h0.469l14.341,16.518V79.786h2.124v21.548   h-0.483l-14.224-16.316v16.316H192.637z"
       id="path151" /></g><g
     id="g153"><path
       fill="#FFFFFF"
       stroke="#FFFFFF"
       stroke-miterlimit="10"
       d="M135.018,109.119l-1.585,0.916   c-0.452-1.449-0.468-2.755-0.05-3.919c0.419-1.162,1.186-2.064,2.299-2.708c0.811-0.468,1.674-0.719,2.588-0.754   c0.915-0.035,1.746,0.15,2.492,0.556c0.746,0.406,1.316,0.95,1.711,1.634c0.773,1.339,0.72,2.784-0.161,4.336   c0.923-0.128,1.792-0.038,2.608,0.27c1.153,0.434,2.024,1.162,2.614,2.184c0.509,0.882,0.762,1.856,0.759,2.925   c-0.004,1.068-0.281,2.053-0.832,2.954c-0.552,0.9-1.324,1.638-2.317,2.211c-1.34,0.773-2.68,1.032-4.02,0.778   c-1.341-0.256-2.579-1.051-3.718-2.387l1.522-0.879c0.851,0.854,1.655,1.362,2.416,1.523c0.971,0.201,1.953,0.014,2.946-0.56   c1.128-0.651,1.838-1.512,2.131-2.584c0.293-1.07,0.178-2.061-0.347-2.97c-0.351-0.606-0.849-1.075-1.496-1.406   s-1.335-0.465-2.063-0.401c-0.729,0.064-1.715,0.412-2.957,1.044l-0.823-1.427c0.712-0.411,1.287-0.91,1.729-1.498   c0.44-0.588,0.681-1.152,0.721-1.692c0.041-0.54-0.07-1.039-0.335-1.498c-0.391-0.676-0.998-1.105-1.822-1.288   c-0.824-0.182-1.648-0.034-2.473,0.441c-0.67,0.387-1.139,0.909-1.408,1.566C134.879,107.144,134.836,108.021,135.018,109.119z"
       id="path155" /><path
       fill="#FFFFFF"
       stroke="#FFFFFF"
       stroke-miterlimit="10"
       d="M147.018,102.192l-1.586,0.915   c-0.452-1.449-0.469-2.755-0.05-3.918c0.419-1.163,1.185-2.065,2.298-2.708c0.811-0.468,1.674-0.719,2.588-0.754   c0.916-0.034,1.746,0.151,2.492,0.556c0.747,0.406,1.317,0.95,1.712,1.633c0.773,1.34,0.72,2.785-0.161,4.336   c0.922-0.128,1.791-0.038,2.608,0.27c1.153,0.434,2.024,1.162,2.614,2.184c0.509,0.881,0.762,1.856,0.758,2.924   c-0.003,1.068-0.28,2.053-0.832,2.954c-0.551,0.9-1.323,1.638-2.317,2.212c-1.339,0.773-2.679,1.032-4.019,0.777   c-1.342-0.256-2.58-1.05-3.718-2.386l1.522-0.879c0.85,0.854,1.654,1.362,2.416,1.523c0.971,0.201,1.953,0.015,2.947-0.56   c1.127-0.65,1.838-1.512,2.131-2.583c0.292-1.071,0.177-2.061-0.349-2.97c-0.35-0.606-0.849-1.075-1.495-1.406   s-1.335-0.465-2.064-0.401c-0.729,0.064-1.714,0.412-2.955,1.044l-0.824-1.427c0.711-0.411,1.287-0.91,1.729-1.498   c0.439-0.588,0.681-1.152,0.721-1.692c0.041-0.54-0.071-1.039-0.336-1.498c-0.391-0.676-0.998-1.105-1.821-1.288   c-0.824-0.182-1.648-0.035-2.474,0.441c-0.669,0.387-1.138,0.909-1.406,1.566C146.877,100.216,146.834,101.094,147.018,102.192z"
       id="path157" /></g><g
     id="g159"><path
       fill="#FFFFFF"
       stroke="#FFFFFF"
       stroke-miterlimit="10"
       d="M98.427,152.854l-0.915,1.585   c-1.116-1.029-1.783-2.152-2.003-3.369c-0.218-1.216-0.006-2.381,0.637-3.495c0.468-0.81,1.09-1.459,1.864-1.947   c0.775-0.487,1.587-0.742,2.436-0.764c0.85-0.022,1.615,0.165,2.299,0.559c1.34,0.773,2.016,2.052,2.029,3.835   c0.734-0.572,1.532-0.928,2.394-1.07c1.215-0.2,2.334-0.006,3.355,0.584c0.882,0.509,1.588,1.227,2.119,2.154   s0.783,1.918,0.757,2.974c-0.027,1.056-0.328,2.08-0.901,3.074c-0.773,1.339-1.805,2.233-3.092,2.683   c-1.29,0.45-2.76,0.38-4.413-0.208l0.879-1.522c1.163,0.314,2.114,0.352,2.854,0.111c0.941-0.312,1.699-0.965,2.273-1.958   c0.65-1.127,0.835-2.229,0.553-3.303c-0.281-1.074-0.877-1.875-1.786-2.399c-0.606-0.35-1.272-0.507-1.998-0.47   c-0.726,0.037-1.388,0.265-1.988,0.685c-0.599,0.42-1.278,1.214-2.038,2.382l-1.427-0.824c0.411-0.712,0.66-1.433,0.748-2.162   c0.087-0.729,0.014-1.338-0.222-1.826c-0.234-0.488-0.581-0.864-1.04-1.129c-0.676-0.391-1.417-0.458-2.222-0.205   c-0.805,0.255-1.444,0.794-1.921,1.619c-0.387,0.67-0.531,1.356-0.436,2.06C97.319,151.214,97.72,151.996,98.427,152.854z"
       id="path161" /><path
       fill="#FFFFFF"
       stroke="#FFFFFF"
       stroke-miterlimit="10"
       d="M108.273,145.444c-2.051-1.184-3.509-2.319-4.376-3.407   c-0.866-1.087-1.355-2.199-1.471-3.336c-0.113-1.137,0.116-2.203,0.69-3.196c0.581-1.008,1.399-1.752,2.452-2.235   c1.054-0.481,2.299-0.625,3.736-0.429c1.438,0.196,3.137,0.859,5.096,1.991c1.952,1.127,3.371,2.259,4.256,3.395   c0.886,1.136,1.385,2.286,1.497,3.451s-0.122,2.25-0.704,3.258c-0.574,0.993-1.377,1.724-2.407,2.19   c-1.03,0.467-2.24,0.598-3.63,0.392S110.31,146.62,108.273,145.444z M109.148,143.99c1.757,1.014,3.175,1.624,4.255,1.83   c1.08,0.205,2.03,0.136,2.85-0.209c0.82-0.344,1.427-0.858,1.821-1.542c0.398-0.691,0.544-1.467,0.435-2.329   c-0.108-0.861-0.529-1.71-1.26-2.546c-0.884-1.027-2.104-1.99-3.663-2.89c-1.566-0.904-2.948-1.471-4.146-1.703   c-1.197-0.23-2.203-0.175-3.017,0.168c-0.814,0.342-1.417,0.852-1.808,1.529c-0.398,0.691-0.542,1.473-0.43,2.345   c0.112,0.874,0.526,1.728,1.243,2.564C106.145,142.044,107.385,142.972,109.148,143.99z"
       id="path163" /></g><g
     id="g165"><path
       fill="#FFFFFF"
       stroke="#FFFFFF"
       stroke-miterlimit="10"
       d="M109.917,264.448l0.86,1.49c-1.558,0.843-3.112,1.057-4.665,0.643   c-1.552-0.414-2.745-1.344-3.579-2.789c-0.826-1.431-1.033-2.855-0.619-4.272c0.412-1.418,1.246-2.489,2.501-3.214   c0.882-0.509,1.83-0.775,2.846-0.799c1.016-0.025,2.534,0.191,4.554,0.646l6.408,1.466l-4.143-7.175l1.502-0.866l6.097,10.561   l-9.851-2.234c-1.987-0.459-3.397-0.69-4.23-0.693c-0.834-0.002-1.597,0.196-2.288,0.596c-0.874,0.504-1.439,1.265-1.694,2.281   s-0.109,1.997,0.436,2.941c0.574,0.993,1.383,1.628,2.425,1.905C107.52,265.209,108.667,265.047,109.917,264.448z"
       id="path167" /><path
       fill="#FFFFFF"
       stroke="#FFFFFF"
       stroke-miterlimit="10"
       d="M93.859,248.767l-0.182-0.315l10.846-6.262l-1.086-1.882   l1.48-0.854l1.086,1.882l3.616-2.087l0.891,1.543l-3.616,2.088l4.297,7.441L93.859,248.767z M105.415,243.733l-6.531,3.771   l9.191,0.836L105.415,243.733z"
       id="path169" /></g><g
     id="g171"><path
       fill="#FFFFFF"
       stroke="#FFFFFF"
       stroke-miterlimit="10"
       d="M153.804,300.688l1.491,0.86c-0.928,1.509-2.167,2.472-3.72,2.889   c-1.551,0.417-3.049,0.208-4.494-0.626c-1.431-0.826-2.322-1.955-2.673-3.391c-0.352-1.434-0.165-2.778,0.56-4.033   c0.509-0.882,1.198-1.586,2.065-2.115s2.29-1.102,4.267-1.718l6.282-1.935l-7.174-4.142l0.867-1.502l10.561,6.098l-9.648,2.991   c-1.951,0.595-3.288,1.1-4.011,1.514c-0.723,0.415-1.284,0.969-1.683,1.66c-0.505,0.873-0.614,1.815-0.326,2.823   c0.287,1.007,0.903,1.784,1.847,2.329c0.994,0.573,2.012,0.719,3.053,0.438C152.109,302.546,153.021,301.833,153.804,300.688z"
       id="path173" /><path
       fill="#FFFFFF"
       stroke="#FFFFFF"
       stroke-miterlimit="10"
       d="M137.497,297.756l-3.055-1.764l8.978-15.551l1.543,0.891   l-8.1,14.029l2.442,1.409L137.497,297.756z"
       id="path175" /></g><g
     id="g177"><path
       fill="#FFFFFF"
       stroke="#FFFFFF"
       stroke-miterlimit="10"
       d="M265.364,296.643l-3.056,1.764l-8.979-15.551l1.544-0.892   l8.099,14.029l2.442-1.41L265.364,296.643z"
       id="path179" /><path
       fill="#FFFFFF"
       stroke="#FFFFFF"
       stroke-miterlimit="10"
       d="M248.674,306.278l-0.854-1.479l5.525-3.19l-1.67-4.689   c-0.562,0.588-1.112,1.038-1.655,1.352c-1.415,0.817-2.855,1.017-4.321,0.6c-1.466-0.418-2.627-1.366-3.481-2.847   c-0.59-1.021-0.895-2.096-0.915-3.221c-0.021-1.126,0.242-2.148,0.787-3.069c0.544-0.921,1.345-1.686,2.402-2.296   c1.262-0.729,2.548-0.957,3.86-0.686c1.313,0.272,2.408,0.971,3.285,2.1l-1.597,0.922c-0.466-0.53-0.949-0.899-1.45-1.108   c-0.501-0.209-1.055-0.291-1.664-0.245c-0.607,0.046-1.172,0.219-1.693,0.52c-1.021,0.59-1.676,1.484-1.963,2.681   c-0.285,1.198-0.093,2.376,0.578,3.538c0.604,1.048,1.428,1.709,2.468,1.981c1.041,0.272,2.114,0.089,3.221-0.55   c0.916-0.529,1.865-1.449,2.848-2.758l3.024,8.558L248.674,306.278z"
       id="path181" /></g><g
     id="g183"><path
       fill="#FFFFFF"
       stroke="#FFFFFF"
       stroke-miterlimit="10"
       d="M305.018,250.334l-1.765,3.056l-15.551-8.979l0.892-1.543   l14.028,8.099l1.41-2.442L305.018,250.334z"
       id="path185" /><path
       fill="#FFFFFF"
       stroke="#FFFFFF"
       stroke-miterlimit="10"
       d="M295.219,256.076l0.86-1.49c1.509,0.928,2.472,2.167,2.889,3.719   c0.417,1.551,0.209,3.05-0.626,4.495c-0.825,1.431-1.955,2.322-3.391,2.672c-1.434,0.352-2.778,0.165-4.033-0.56   c-0.881-0.509-1.586-1.197-2.115-2.064c-0.528-0.868-1.102-2.29-1.718-4.267l-1.935-6.282l-4.142,7.174l-1.501-0.867l6.097-10.561   l2.991,9.648c0.595,1.95,1.1,3.287,1.514,4.011c0.416,0.724,0.969,1.284,1.66,1.684c0.874,0.505,1.815,0.614,2.823,0.326   c1.008-0.287,1.784-0.903,2.329-1.848c0.574-0.993,0.719-2.012,0.438-3.053C297.078,257.771,296.364,256.859,295.219,256.076z"
       id="path187" /></g><g
     id="g189"><path
       fill="#FFFFFF"
       stroke="#FFFFFF"
       stroke-miterlimit="10"
       d="M302.287,142.898l-0.097,1.762l-8.791-0.532   c0.516,0.455,0.916,0.929,1.201,1.423c0.713,1.235,0.873,2.541,0.479,3.917c-0.395,1.376-1.244,2.44-2.547,3.193   c-0.896,0.517-1.824,0.775-2.787,0.776s-1.879-0.259-2.747-0.778c-0.868-0.519-1.557-1.22-2.066-2.102   c-0.493-0.854-0.744-1.765-0.753-2.733c-0.01-0.968,0.239-1.876,0.746-2.724s1.187-1.518,2.039-2.01   c0.635-0.366,1.376-0.623,2.227-0.77c0.85-0.147,1.96-0.174,3.33-0.08L302.287,142.898z M293.023,145.97   c-0.522-0.903-1.286-1.491-2.292-1.762c-1.007-0.27-1.964-0.143-2.874,0.383c-0.902,0.521-1.488,1.284-1.757,2.291   c-0.269,1.008-0.142,1.963,0.379,2.866s1.286,1.491,2.292,1.762c1.007,0.271,1.961,0.146,2.863-0.376   c0.909-0.524,1.498-1.291,1.767-2.298S293.545,146.873,293.023,145.97z"
       id="path191" /></g><g
     id="g193"><path
       fill="#FFFFFF"
       stroke="#FFFFFF"
       stroke-miterlimit="10"
       d="M252.478,100.756l-1.585-0.915   c1.029-1.116,2.152-1.783,3.369-2.003c1.216-0.218,2.381-0.006,3.495,0.637c0.81,0.468,1.459,1.09,1.947,1.864   c0.487,0.775,0.742,1.587,0.764,2.436c0.022,0.85-0.165,1.615-0.559,2.299c-0.773,1.34-2.052,2.016-3.835,2.029   c0.572,0.734,0.928,1.532,1.07,2.394c0.2,1.215,0.006,2.334-0.584,3.355c-0.509,0.882-1.227,1.588-2.154,2.119   s-1.918,0.783-2.974,0.757c-1.056-0.027-2.08-0.328-3.074-0.901c-1.339-0.773-2.233-1.805-2.683-3.092   c-0.45-1.29-0.38-2.76,0.208-4.413l1.522,0.879c-0.314,1.163-0.352,2.114-0.111,2.854c0.312,0.941,0.965,1.699,1.958,2.273   c1.127,0.65,2.229,0.835,3.303,0.553c1.074-0.281,1.875-0.877,2.399-1.786c0.35-0.606,0.507-1.272,0.47-1.998   c-0.037-0.726-0.265-1.388-0.685-1.988c-0.42-0.599-1.214-1.278-2.382-2.038l0.824-1.427c0.712,0.411,1.433,0.66,2.162,0.748   c0.729,0.087,1.338,0.014,1.826-0.222c0.488-0.234,0.864-0.581,1.129-1.04c0.391-0.676,0.458-1.417,0.205-2.222   c-0.255-0.805-0.794-1.444-1.619-1.921c-0.67-0.387-1.356-0.531-2.06-0.436C254.118,99.647,253.336,100.049,252.478,100.756z"
       id="path195" /></g><g
     id="g197"><path
       fill="#FFFFFF"
       stroke="#FFFFFF"
       stroke-miterlimit="10"
       d="M80.119,212.927v-2.212l15.527-4.402l-15.527-6.177v-0.447   l15.527-6.105l-15.527-4.477v-2.195l21.548,6.191v0.4l-16.304,6.394l16.304,6.519v0.402L80.119,212.927z"
       id="path199" /></g><g
     id="g201"><path
       fill="#FFFFFF"
       stroke="#FFFFFF"
       stroke-miterlimit="10"
       d="M206.271,302.679l-1.831,1.099   c-1.289-2.373-2.778-3.56-4.468-3.56c-0.723,0-1.401,0.168-2.036,0.505s-1.118,0.789-1.45,1.355s-0.498,1.167-0.498,1.802   c0,0.723,0.244,1.431,0.732,2.124c0.674,0.957,1.904,2.109,3.691,3.457c1.797,1.357,2.915,2.339,3.354,2.944   c0.762,1.016,1.143,2.114,1.143,3.296c0,0.938-0.225,1.792-0.674,2.563s-1.082,1.379-1.897,1.824s-1.702,0.667-2.659,0.667   c-1.016,0-1.965-0.251-2.849-0.754s-1.819-1.428-2.805-2.776l1.758-1.333c0.811,1.074,1.501,1.782,2.073,2.124   s1.194,0.513,1.868,0.513c0.869,0,1.58-0.264,2.131-0.791s0.828-1.177,0.828-1.948c0-0.469-0.098-0.923-0.293-1.362   s-0.552-0.918-1.069-1.436c-0.283-0.273-1.211-0.991-2.783-2.153c-1.865-1.377-3.145-2.603-3.838-3.677s-1.04-2.153-1.04-3.237   c0-1.563,0.593-2.92,1.78-4.072s2.629-1.729,4.329-1.729c1.309,0,2.495,0.349,3.56,1.047S205.373,301.039,206.271,302.679z"
       id="path203" /></g><g
     id="g205"><path
       fill="#FFFFFF"
       stroke="#FFFFFF"
       stroke-miterlimit="10"
       d="M320.547,193.303v12.349h-2.109v-10.195h-6.753v10.107h-2.109   v-10.107h-8.467v10.107H299v-12.261H320.547z"
       id="path207" /></g><circle
     r="152.98428"
     cy="200.17946"
     cx="200.7316"
     id="path5795"
     style="display:inline;fill:url(#radialGradient5933);fill-opacity:1;fill-rule:evenodd;stroke:none;stroke-width:0.9329446;stroke-linecap:butt;stroke-linejoin:miter;stroke-miterlimit:4;stroke-dasharray:none;stroke-dashoffset:0;stroke-opacity:1" /><g
     style="display:inline"
     id="g9405"
     transform="matrix(2.2213469,0,0,2.2213469,-431.10577,-376.93672)"
     inkscape:transform-center-x="-0.004334782"
     inkscape:transform-center-y="-0.0043501947"><path
       id="path4815-0"
       d="m 345.187,259.72162 a 60.901291,60.901291 0 0 1 -60.90129,60.90129 60.901291,60.901291 0 0 1 -60.9013,-60.90129 60.901291,60.901291 0 0 1 60.9013,-60.90129 60.901291,60.901291 0 0 1 60.90129,60.90129 z"
       style="display:inline;fill:url(#linearGradient5945-5);fill-opacity:1;fill-rule:evenodd;stroke:none;stroke-width:0.96476698;stroke-linecap:butt;stroke-linejoin:miter;stroke-miterlimit:4;stroke-dasharray:none;stroke-dashoffset:0;stroke-opacity:1"
       inkscape:connector-curvature="0" /><path
       inkscape:connector-curvature="0"
       id="path5836-3"
       d="m 284.29716,211.00351 -0.0249,-12.1755"
       style="display:inline;fill:none;fill-opacity:1;fill-rule:evenodd;stroke:#951c00;stroke-width:1.54233348;stroke-linecap:butt;stroke-linejoin:miter;stroke-miterlimit:4;stroke-dasharray:none;stroke-dashoffset:0;stroke-opacity:1" /><path
       id="path5922-5"
       d="m 292.6476,211.7264 2.08083,-11.94358"
       style="display:inline;fill:none;fill-opacity:1;fill-rule:evenodd;stroke:#ffffff;stroke-width:1.54233348;stroke-linecap:butt;stroke-linejoin:miter;stroke-miterlimit:4;stroke-dasharray:none;stroke-dashoffset:0;stroke-opacity:1"
       inkscape:connector-curvature="0" /><path
       id="path5920-3"
       d="m 288.60779,209.13088 0.85923,-10.05756"
       style="display:inline;fill:none;fill-opacity:1;fill-rule:evenodd;stroke:#ffffff;stroke-width:1.54233348;stroke-linecap:butt;stroke-linejoin:miter;stroke-miterlimit:4;stroke-dasharray:none;stroke-dashoffset:0;stroke-opacity:1"
       inkscape:connector-curvature="0" /><path
       id="path5918-0"
       d="m 279.75715,209.14895 -0.9003,-10.05396"
       style="display:inline;fill:none;fill-opacity:1;fill-rule:evenodd;stroke:#ffffff;stroke-width:1.54233348;stroke-linecap:butt;stroke-linejoin:miter;stroke-miterlimit:4;stroke-dasharray:none;stroke-dashoffset:0;stroke-opacity:1"
       inkscape:connector-curvature="0" /><path
       id="path5916-0"
       d="m 271.05008,210.72577 -2.63253,-9.74505"
       style="display:inline;fill:none;fill-opacity:1;fill-rule:evenodd;stroke:#ffffff;stroke-width:1.54233348;stroke-linecap:butt;stroke-linejoin:miter;stroke-miterlimit:4;stroke-dasharray:none;stroke-dashoffset:0;stroke-opacity:1"
       inkscape:connector-curvature="0" /><path
       id="path5914-3"
       d="m 262.74024,213.76235 -4.27985,-9.12947"
       style="display:inline;fill:none;fill-opacity:1;fill-rule:evenodd;stroke:#ffffff;stroke-width:1.54233348;stroke-linecap:butt;stroke-linejoin:miter;stroke-miterlimit:4;stroke-dasharray:none;stroke-dashoffset:0;stroke-opacity:1"
       inkscape:connector-curvature="0" /><path
       id="path5912-2"
       d="m 255.08097,218.19359 -5.80269,-8.25119"
       style="display:inline;fill:none;fill-opacity:1;fill-rule:evenodd;stroke:#ffffff;stroke-width:1.54233348;stroke-linecap:butt;stroke-linejoin:miter;stroke-miterlimit:4;stroke-dasharray:none;stroke-dashoffset:0;stroke-opacity:1"
       inkscape:connector-curvature="0" /><path
       id="path5910-7"
       d="m 248.28894,223.87149 -7.14785,-7.11872"
       style="display:inline;fill:none;fill-opacity:1;fill-rule:evenodd;stroke:#ffffff;stroke-width:1.54233348;stroke-linecap:butt;stroke-linejoin:miter;stroke-miterlimit:4;stroke-dasharray:none;stroke-dashoffset:0;stroke-opacity:1"
       inkscape:connector-curvature="0" /><path
       id="path5908-2"
       d="m 242.63882,230.68666 -8.27481,-5.76895"
       style="display:inline;fill:none;fill-opacity:1;fill-rule:evenodd;stroke:#ffffff;stroke-width:1.54233348;stroke-linecap:butt;stroke-linejoin:miter;stroke-miterlimit:4;stroke-dasharray:none;stroke-dashoffset:0;stroke-opacity:1"
       inkscape:connector-curvature="0" /><path
       id="path5906-0"
       d="m 238.24064,238.36477 -9.14793,-4.24303"
       style="display:inline;fill:none;fill-opacity:1;fill-rule:evenodd;stroke:#ffffff;stroke-width:1.54233348;stroke-linecap:butt;stroke-linejoin:miter;stroke-miterlimit:4;stroke-dasharray:none;stroke-dashoffset:0;stroke-opacity:1"
       inkscape:connector-curvature="0" /><path
       id="path5904-0"
       d="m 235.239,246.68685 -9.75895,-2.59356"
       style="display:inline;fill:none;fill-opacity:1;fill-rule:evenodd;stroke:#ffffff;stroke-width:1.54233348;stroke-linecap:butt;stroke-linejoin:miter;stroke-miterlimit:4;stroke-dasharray:none;stroke-dashoffset:0;stroke-opacity:1"
       inkscape:connector-curvature="0" /><path
       id="path5902-7"
       d="m 233.69862,255.39987 -10.05974,-0.85942"
       style="display:inline;fill:none;fill-opacity:1;fill-rule:evenodd;stroke:#ffffff;stroke-width:1.54233348;stroke-linecap:butt;stroke-linejoin:miter;stroke-miterlimit:4;stroke-dasharray:none;stroke-dashoffset:0;stroke-opacity:1"
       inkscape:connector-curvature="0" /><path
       id="path5900-7"
       d="m 233.71703,264.24985 -10.05635,0.90052"
       style="display:inline;fill:none;fill-opacity:1;fill-rule:evenodd;stroke:#ffffff;stroke-width:1.54233348;stroke-linecap:butt;stroke-linejoin:miter;stroke-miterlimit:4;stroke-dasharray:none;stroke-dashoffset:0;stroke-opacity:1"
       inkscape:connector-curvature="0" /><path
       id="path5898-9"
       d="m 235.27463,272.96141 -9.73146,2.62884"
       style="display:inline;fill:none;fill-opacity:1;fill-rule:evenodd;stroke:#ffffff;stroke-width:1.54233348;stroke-linecap:butt;stroke-linejoin:miter;stroke-miterlimit:4;stroke-dasharray:none;stroke-dashoffset:0;stroke-opacity:1"
       inkscape:connector-curvature="0" /><path
       id="path5896-6"
       d="m 238.34294,281.2594 -9.14703,4.28809"
       style="display:inline;fill:none;fill-opacity:1;fill-rule:evenodd;stroke:#ffffff;stroke-width:1.54233348;stroke-linecap:butt;stroke-linejoin:miter;stroke-miterlimit:4;stroke-dasharray:none;stroke-dashoffset:0;stroke-opacity:1"
       inkscape:connector-curvature="0" /><path
       id="path5894-8"
       d="m 242.76851,288.91882 -8.26491,5.81233"
       style="display:inline;fill:none;fill-opacity:1;fill-rule:evenodd;stroke:#ffffff;stroke-width:1.54233348;stroke-linecap:butt;stroke-linejoin:miter;stroke-miterlimit:4;stroke-dasharray:none;stroke-dashoffset:0;stroke-opacity:1"
       inkscape:connector-curvature="0" /><path
       id="path5892-3"
       d="m 248.45168,295.70232 -0.008,0.008"
       style="display:inline;fill:none;fill-opacity:1;fill-rule:evenodd;stroke:#ffffff;stroke-width:1.54233348;stroke-linecap:butt;stroke-linejoin:miter;stroke-miterlimit:4;stroke-dasharray:none;stroke-dashoffset:0;stroke-opacity:1"
       inkscape:connector-curvature="0" /><path
       id="path5890-1"
       d="m 248.44368,295.71035 -7.12986,7.15904"
       style="display:inline;fill:none;fill-opacity:1;fill-rule:evenodd;stroke:#ffffff;stroke-width:1.54233348;stroke-linecap:butt;stroke-linejoin:miter;stroke-miterlimit:4;stroke-dasharray:none;stroke-dashoffset:0;stroke-opacity:1"
       inkscape:connector-curvature="0" /><path
       id="path5888-2"
       d="m 255.25268,301.36586 -5.77967,8.2902"
       style="display:inline;fill:none;fill-opacity:1;fill-rule:evenodd;stroke:#ffffff;stroke-width:1.54233348;stroke-linecap:butt;stroke-linejoin:miter;stroke-miterlimit:4;stroke-dasharray:none;stroke-dashoffset:0;stroke-opacity:1"
       inkscape:connector-curvature="0" /><path
       id="path5885-3"
       d="m 262.92964,305.76518 -4.24346,9.14885"
       style="display:inline;fill:none;fill-opacity:1;fill-rule:evenodd;stroke:#ffffff;stroke-width:1.54233348;stroke-linecap:butt;stroke-linejoin:miter;stroke-miterlimit:4;stroke-dasharray:none;stroke-dashoffset:0;stroke-opacity:1"
       inkscape:connector-curvature="0" /><path
       id="path5883-7"
       d="m 271.25128,308.76734 -2.5933,9.75798"
       style="display:inline;fill:none;fill-opacity:1;fill-rule:evenodd;stroke:#ffffff;stroke-width:1.54233348;stroke-linecap:butt;stroke-linejoin:miter;stroke-miterlimit:4;stroke-dasharray:none;stroke-dashoffset:0;stroke-opacity:1"
       inkscape:connector-curvature="0" /><path
       id="path5881-3"
       d="m 279.96406,310.30838 -0.85943,10.05995"
       style="display:inline;fill:none;fill-opacity:1;fill-rule:evenodd;stroke:#ffffff;stroke-width:1.54233348;stroke-linecap:butt;stroke-linejoin:miter;stroke-miterlimit:4;stroke-dasharray:none;stroke-dashoffset:0;stroke-opacity:1"
       inkscape:connector-curvature="0" /><path
       id="path5879-7"
       d="m 288.81403,310.29031 0.90051,10.05635"
       style="display:inline;fill:none;fill-opacity:1;fill-rule:evenodd;stroke:#ffffff;stroke-width:1.54233348;stroke-linecap:butt;stroke-linejoin:miter;stroke-miterlimit:4;stroke-dasharray:none;stroke-dashoffset:0;stroke-opacity:1"
       inkscape:connector-curvature="0" /><path
       id="path5877-3"
       d="m 297.52045,308.7137 2.63313,9.74731"
       style="display:inline;fill:none;fill-opacity:1;fill-rule:evenodd;stroke:#ffffff;stroke-width:1.54233348;stroke-linecap:butt;stroke-linejoin:miter;stroke-miterlimit:4;stroke-dasharray:none;stroke-dashoffset:0;stroke-opacity:1"
       inkscape:connector-curvature="0" /><path
       id="path5875-0"
       d="m 305.82975,305.67758 4.28079,9.13144"
       style="display:inline;fill:none;fill-opacity:1;fill-rule:evenodd;stroke:#ffffff;stroke-width:1.54233348;stroke-linecap:butt;stroke-linejoin:miter;stroke-miterlimit:4;stroke-dasharray:none;stroke-dashoffset:0;stroke-opacity:1"
       inkscape:connector-curvature="0" /><path
       id="path5873-6"
       d="m 313.48869,301.24693 5.81348,8.26653"
       style="display:inline;fill:none;fill-opacity:1;fill-rule:evenodd;stroke:#ffffff;stroke-width:1.54233348;stroke-linecap:butt;stroke-linejoin:miter;stroke-miterlimit:4;stroke-dasharray:none;stroke-dashoffset:0;stroke-opacity:1"
       inkscape:connector-curvature="0" /><path
       id="path5871-0"
       d="m 320.26649,295.55565 0.008,0.008"
       style="display:inline;fill:none;fill-opacity:1;fill-rule:evenodd;stroke:#ffffff;stroke-width:1.54233348;stroke-linecap:butt;stroke-linejoin:miter;stroke-miterlimit:4;stroke-dasharray:none;stroke-dashoffset:0;stroke-opacity:1"
       inkscape:connector-curvature="0" /><path
       id="path5869-7"
       d="m 320.27453,295.56365 7.1559,7.12674"
       style="display:inline;fill:none;fill-opacity:1;fill-rule:evenodd;stroke:#ffffff;stroke-width:1.54233348;stroke-linecap:butt;stroke-linejoin:miter;stroke-miterlimit:4;stroke-dasharray:none;stroke-dashoffset:0;stroke-opacity:1"
       inkscape:connector-curvature="0" /><path
       id="path5867-4"
       d="m 325.9219,288.74898 8.28858,5.77854"
       style="display:inline;fill:none;fill-opacity:1;fill-rule:evenodd;stroke:#ffffff;stroke-width:1.54233348;stroke-linecap:butt;stroke-linejoin:miter;stroke-miterlimit:4;stroke-dasharray:none;stroke-dashoffset:0;stroke-opacity:1"
       inkscape:connector-curvature="0" /><path
       id="path5865-0"
       d="m 330.32936,281.0777 9.15501,4.24631"
       style="display:inline;fill:none;fill-opacity:1;fill-rule:evenodd;stroke:#ffffff;stroke-width:1.54233348;stroke-linecap:butt;stroke-linejoin:miter;stroke-miterlimit:4;stroke-dasharray:none;stroke-dashoffset:0;stroke-opacity:1"
       inkscape:connector-curvature="0" /><path
       id="path5863-7"
       d="m 333.35055,272.76111 9.74211,2.58909"
       style="display:inline;fill:none;fill-opacity:1;fill-rule:evenodd;stroke:#ffffff;stroke-width:1.54233348;stroke-linecap:butt;stroke-linejoin:miter;stroke-miterlimit:4;stroke-dasharray:none;stroke-dashoffset:0;stroke-opacity:1"
       inkscape:connector-curvature="0" /><path
       id="path5861-9"
       d="m 334.87254,264.04326 10.05995,0.85944"
       style="display:inline;fill:none;fill-opacity:1;fill-rule:evenodd;stroke:#ffffff;stroke-width:1.54233348;stroke-linecap:butt;stroke-linejoin:miter;stroke-miterlimit:4;stroke-dasharray:none;stroke-dashoffset:0;stroke-opacity:1"
       inkscape:connector-curvature="0" /><path
       id="path5855-5"
       d="m 334.85481,255.19328 10.05615,-0.9005"
       style="display:inline;fill:none;fill-opacity:1;fill-rule:evenodd;stroke:#ffffff;stroke-width:1.54233348;stroke-linecap:butt;stroke-linejoin:miter;stroke-miterlimit:4;stroke-dasharray:none;stroke-dashoffset:0;stroke-opacity:1"
       inkscape:connector-curvature="0" /><path
       id="path5853-2"
       d="m 333.27887,246.48662 9.74827,-2.63339"
       style="display:inline;fill:none;fill-opacity:1;fill-rule:evenodd;stroke:#ffffff;stroke-width:1.54233348;stroke-linecap:butt;stroke-linejoin:miter;stroke-miterlimit:4;stroke-dasharray:none;stroke-dashoffset:0;stroke-opacity:1"
       inkscape:connector-curvature="0" /><path
       id="path5851-1"
       d="m 330.24327,238.17687 9.13051,-4.28035"
       style="display:inline;fill:none;fill-opacity:1;fill-rule:evenodd;stroke:#ffffff;stroke-width:1.54233348;stroke-linecap:butt;stroke-linejoin:miter;stroke-miterlimit:4;stroke-dasharray:none;stroke-dashoffset:0;stroke-opacity:1"
       inkscape:connector-curvature="0" /><path
       id="path5849-7"
       d="m 325.80484,230.52305 8.25625,-5.80625"
       style="display:inline;fill:none;fill-opacity:1;fill-rule:evenodd;stroke:#ffffff;stroke-width:1.54233348;stroke-linecap:butt;stroke-linejoin:miter;stroke-miterlimit:4;stroke-dasharray:none;stroke-dashoffset:0;stroke-opacity:1"
       inkscape:connector-curvature="0" /><path
       id="path5847-5"
       d="m 320.13585,223.72475 7.11871,-7.14785"
       style="display:inline;fill:none;fill-opacity:1;fill-rule:evenodd;stroke:#ffffff;stroke-width:1.54233348;stroke-linecap:butt;stroke-linejoin:miter;stroke-miterlimit:4;stroke-dasharray:none;stroke-dashoffset:0;stroke-opacity:1"
       inkscape:connector-curvature="0" /><path
       id="path5845-3"
       d="m 313.32069,218.07463 5.76894,-8.27482"
       style="display:inline;fill:none;fill-opacity:1;fill-rule:evenodd;stroke:#ffffff;stroke-width:1.54233348;stroke-linecap:butt;stroke-linejoin:miter;stroke-miterlimit:4;stroke-dasharray:none;stroke-dashoffset:0;stroke-opacity:1"
       inkscape:connector-curvature="0" /><path
       id="path5843-4"
       d="m 305.64339,213.67471 4.24253,-9.14686"
       style="display:inline;fill:none;fill-opacity:1;fill-rule:evenodd;stroke:#ffffff;stroke-width:1.54233348;stroke-linecap:butt;stroke-linejoin:miter;stroke-miterlimit:4;stroke-dasharray:none;stroke-dashoffset:0;stroke-opacity:1"
       inkscape:connector-curvature="0" /><path
       id="path5840-8"
       d="m 297.32123,210.6721 2.59269,-9.75573"
       style="display:inline;fill:none;fill-opacity:1;fill-rule:evenodd;stroke:#ffffff;stroke-width:1.54233348;stroke-linecap:butt;stroke-linejoin:miter;stroke-miterlimit:4;stroke-dasharray:none;stroke-dashoffset:0;stroke-opacity:1"
       inkscape:connector-curvature="0" /><path
       id="path5834-5"
       d="m 275.73576,211.80452 -2.13775,-11.98063"
       style="display:inline;fill:none;fill-opacity:1;fill-rule:evenodd;stroke:#ffffff;stroke-width:1.54233348;stroke-linecap:butt;stroke-linejoin:miter;stroke-miterlimit:4;stroke-dasharray:none;stroke-dashoffset:0;stroke-opacity:1"
       inkscape:connector-curvature="0" /><path
       id="path5832-4"
       d="m 267.54224,214.00979 -4.18069,-11.41377"
       style="display:inline;fill:none;fill-opacity:1;fill-rule:evenodd;stroke:#ffffff;stroke-width:1.54233348;stroke-linecap:butt;stroke-linejoin:miter;stroke-miterlimit:4;stroke-dasharray:none;stroke-dashoffset:0;stroke-opacity:1"
       inkscape:connector-curvature="0" /><path
       id="path5830-7"
       d="m 259.86458,217.62164 -6.1063,-10.52672"
       style="display:inline;fill:none;fill-opacity:1;fill-rule:evenodd;stroke:#ffffff;stroke-width:1.54233348;stroke-linecap:butt;stroke-linejoin:miter;stroke-miterlimit:4;stroke-dasharray:none;stroke-dashoffset:0;stroke-opacity:1"
       inkscape:connector-curvature="0" /><path
       id="path5828-3"
       d="m 252.90503,222.4782 -7.83923,-9.30379"
       style="display:inline;fill:none;fill-opacity:1;fill-rule:evenodd;stroke:#ffffff;stroke-width:1.54233348;stroke-linecap:butt;stroke-linejoin:miter;stroke-miterlimit:4;stroke-dasharray:none;stroke-dashoffset:0;stroke-opacity:1"
       inkscape:connector-curvature="0" /><path
       id="path5826-6"
       d="m 246.91495,228.49357 -9.336,-7.8014"
       style="display:inline;fill:none;fill-opacity:1;fill-rule:evenodd;stroke:#ffffff;stroke-width:1.54233348;stroke-linecap:butt;stroke-linejoin:miter;stroke-miterlimit:4;stroke-dasharray:none;stroke-dashoffset:0;stroke-opacity:1"
       inkscape:connector-curvature="0" /><path
       id="path5824-6"
       d="m 242.07772,235.46754 -10.55376,-6.06451"
       style="display:inline;fill:none;fill-opacity:1;fill-rule:evenodd;stroke:#ffffff;stroke-width:1.54233348;stroke-linecap:butt;stroke-linejoin:miter;stroke-miterlimit:4;stroke-dasharray:none;stroke-dashoffset:0;stroke-opacity:1"
       inkscape:connector-curvature="0" /><path
       id="path5822-1"
       d="m 238.50847,243.1658 -11.43238,-4.13464"
       style="display:inline;fill:none;fill-opacity:1;fill-rule:evenodd;stroke:#ffffff;stroke-width:1.54233348;stroke-linecap:butt;stroke-linejoin:miter;stroke-miterlimit:4;stroke-dasharray:none;stroke-dashoffset:0;stroke-opacity:1"
       inkscape:connector-curvature="0" /><path
       id="path5820-1"
       d="m 236.32216,251.36525 -11.99159,-2.0892"
       style="display:inline;fill:none;fill-opacity:1;fill-rule:evenodd;stroke:#ffffff;stroke-width:1.54233348;stroke-linecap:butt;stroke-linejoin:miter;stroke-miterlimit:4;stroke-dasharray:none;stroke-dashoffset:0;stroke-opacity:1"
       inkscape:connector-curvature="0" /><path
       id="path5818-7"
       d="m 235.55606,259.82108 -12.1784,0.0249"
       style="display:inline;fill:none;fill-opacity:1;fill-rule:evenodd;stroke:#ffffff;stroke-width:1.54233348;stroke-linecap:butt;stroke-linejoin:miter;stroke-miterlimit:4;stroke-dasharray:none;stroke-dashoffset:0;stroke-opacity:1"
       inkscape:connector-curvature="0" /><path
       id="path5816-5"
       d="m 236.35744,268.27358 -11.98345,2.13825"
       style="display:inline;fill:none;fill-opacity:1;fill-rule:evenodd;stroke:#ffffff;stroke-width:1.54233348;stroke-linecap:butt;stroke-linejoin:miter;stroke-miterlimit:4;stroke-dasharray:none;stroke-dashoffset:0;stroke-opacity:1"
       inkscape:connector-curvature="0" /><path
       id="path5814-4"
       d="m 238.5779,276.46365 -11.41634,4.18162"
       style="display:inline;fill:none;fill-opacity:1;fill-rule:evenodd;stroke:#ffffff;stroke-width:1.54233348;stroke-linecap:butt;stroke-linejoin:miter;stroke-miterlimit:4;stroke-dasharray:none;stroke-dashoffset:0;stroke-opacity:1"
       inkscape:connector-curvature="0" /><path
       id="path5812-7"
       d="m 242.1721,284.15071 -10.52321,6.10426"
       style="display:inline;fill:none;fill-opacity:1;fill-rule:evenodd;stroke:#ffffff;stroke-width:1.54233348;stroke-linecap:butt;stroke-linejoin:miter;stroke-miterlimit:4;stroke-dasharray:none;stroke-dashoffset:0;stroke-opacity:1"
       inkscape:connector-curvature="0" /><path
       id="path5810-8"
       d="m 247.04498,291.1001 -9.30548,7.84067"
       style="display:inline;fill:none;fill-opacity:1;fill-rule:evenodd;stroke:#ffffff;stroke-width:1.54233348;stroke-linecap:butt;stroke-linejoin:miter;stroke-miterlimit:4;stroke-dasharray:none;stroke-dashoffset:0;stroke-opacity:1"
       inkscape:connector-curvature="0" /><path
       id="path5808-3"
       d="m 253.05957,297.09018 -7.80259,9.33744"
       style="display:inline;fill:none;fill-opacity:1;fill-rule:evenodd;stroke:#ffffff;stroke-width:1.54233348;stroke-linecap:butt;stroke-linejoin:miter;stroke-miterlimit:4;stroke-dasharray:none;stroke-dashoffset:0;stroke-opacity:1"
       inkscape:connector-curvature="0" /><path
       id="path5806-2"
       d="m 260.03864,301.91756 -6.07144,10.56581"
       style="display:inline;fill:none;fill-opacity:1;fill-rule:evenodd;stroke:#ffffff;stroke-width:1.54233348;stroke-linecap:butt;stroke-linejoin:miter;stroke-miterlimit:4;stroke-dasharray:none;stroke-dashoffset:0;stroke-opacity:1"
       inkscape:connector-curvature="0" /><path
       id="path5804-1"
       d="m 267.73049,305.49743 -4.13497,11.43331"
       style="display:inline;fill:none;fill-opacity:1;fill-rule:evenodd;stroke:#ffffff;stroke-width:1.54233348;stroke-linecap:butt;stroke-linejoin:miter;stroke-miterlimit:4;stroke-dasharray:none;stroke-dashoffset:0;stroke-opacity:1"
       inkscape:connector-curvature="0" /><path
       id="path5802-0"
       d="m 275.92956,307.6844 -2.08657,11.9765"
       style="display:inline;fill:none;fill-opacity:1;fill-rule:evenodd;stroke:#ffffff;stroke-width:1.54233348;stroke-linecap:butt;stroke-linejoin:miter;stroke-miterlimit:4;stroke-dasharray:none;stroke-dashoffset:0;stroke-opacity:1"
       inkscape:connector-curvature="0" /><path
       id="path5800-2"
       d="m 284.38523,308.4352 0.0249,12.1784"
       style="display:inline;fill:none;fill-opacity:1;fill-rule:evenodd;stroke:#ffffff;stroke-width:1.54233348;stroke-linecap:butt;stroke-linejoin:miter;stroke-miterlimit:4;stroke-dasharray:none;stroke-dashoffset:0;stroke-opacity:1"
       inkscape:connector-curvature="0" /><path
       id="path5798-8"
       d="m 292.83775,307.64988 2.13547,11.96787"
       style="display:inline;fill:none;fill-opacity:1;fill-rule:evenodd;stroke:#ffffff;stroke-width:1.54233348;stroke-linecap:butt;stroke-linejoin:miter;stroke-miterlimit:4;stroke-dasharray:none;stroke-dashoffset:0;stroke-opacity:1"
       inkscape:connector-curvature="0" /><path
       id="path5796-4"
       d="m 301.02783,305.42944 4.18163,11.41633"
       style="display:inline;fill:none;fill-opacity:1;fill-rule:evenodd;stroke:#ffffff;stroke-width:1.54233348;stroke-linecap:butt;stroke-linejoin:miter;stroke-miterlimit:4;stroke-dasharray:none;stroke-dashoffset:0;stroke-opacity:1"
       inkscape:connector-curvature="0" /><path
       id="path5793-2"
       d="m 308.70499,301.81817 6.11455,10.54092"
       style="display:inline;fill:none;fill-opacity:1;fill-rule:evenodd;stroke:#ffffff;stroke-width:1.54233348;stroke-linecap:butt;stroke-linejoin:miter;stroke-miterlimit:4;stroke-dasharray:none;stroke-dashoffset:0;stroke-opacity:1"
       inkscape:connector-curvature="0" /><path
       id="path5791-7"
       d="m 315.66427,296.96235 7.84067,9.30548"
       style="display:inline;fill:none;fill-opacity:1;fill-rule:evenodd;stroke:#ffffff;stroke-width:1.54233348;stroke-linecap:butt;stroke-linejoin:miter;stroke-miterlimit:4;stroke-dasharray:none;stroke-dashoffset:0;stroke-opacity:1"
       inkscape:connector-curvature="0" /><path
       id="path5789-4"
       d="m 321.65436,290.94775 9.33743,7.80259"
       style="display:inline;fill:none;fill-opacity:1;fill-rule:evenodd;stroke:#ffffff;stroke-width:1.54233348;stroke-linecap:butt;stroke-linejoin:miter;stroke-miterlimit:4;stroke-dasharray:none;stroke-dashoffset:0;stroke-opacity:1"
       inkscape:connector-curvature="0" /><path
       id="path5787-0"
       d="m 326.49882,283.9785 10.54805,6.06123"
       style="display:inline;fill:none;fill-opacity:1;fill-rule:evenodd;stroke:#ffffff;stroke-width:1.54233348;stroke-linecap:butt;stroke-linejoin:miter;stroke-miterlimit:4;stroke-dasharray:none;stroke-dashoffset:0;stroke-opacity:1"
       inkscape:connector-curvature="0" /><path
       id="path5785-9"
       d="m 330.06159,276.27684 11.43332,4.13496"
       style="display:inline;fill:none;fill-opacity:1;fill-rule:evenodd;stroke:#ffffff;stroke-width:1.54233348;stroke-linecap:butt;stroke-linejoin:miter;stroke-miterlimit:4;stroke-dasharray:none;stroke-dashoffset:0;stroke-opacity:1"
       inkscape:connector-curvature="0" /><path
       id="path5783-5"
       d="m 332.24858,268.07776 11.99208,2.08929"
       style="display:inline;fill:none;fill-opacity:1;fill-rule:evenodd;stroke:#ffffff;stroke-width:1.54233348;stroke-linecap:butt;stroke-linejoin:miter;stroke-miterlimit:4;stroke-dasharray:none;stroke-dashoffset:0;stroke-opacity:1"
       inkscape:connector-curvature="0" /><path
       id="path5781-7"
       d="m 333.01544,259.62207 12.1784,-0.0249"
       style="display:inline;fill:none;fill-opacity:1;fill-rule:evenodd;stroke:#ffffff;stroke-width:1.54233348;stroke-linecap:butt;stroke-linejoin:miter;stroke-miterlimit:4;stroke-dasharray:none;stroke-dashoffset:0;stroke-opacity:1"
       inkscape:connector-curvature="0" /><path
       id="path5779-6"
       d="m 332.21482,251.16943 11.98295,-2.13816"
       style="display:inline;fill:none;fill-opacity:1;fill-rule:evenodd;stroke:#ffffff;stroke-width:1.54233348;stroke-linecap:butt;stroke-linejoin:miter;stroke-miterlimit:4;stroke-dasharray:none;stroke-dashoffset:0;stroke-opacity:1"
       inkscape:connector-curvature="0" /><path
       id="path5777-1"
       d="m 329.99504,242.97897 11.4154,-4.18129"
       style="display:inline;fill:none;fill-opacity:1;fill-rule:evenodd;stroke:#ffffff;stroke-width:1.54233348;stroke-linecap:butt;stroke-linejoin:miter;stroke-miterlimit:4;stroke-dasharray:none;stroke-dashoffset:0;stroke-opacity:1"
       inkscape:connector-curvature="0" /><path
       id="path5775-4"
       d="m 326.39437,235.29535 10.5289,-6.10756"
       style="display:inline;fill:none;fill-opacity:1;fill-rule:evenodd;stroke:#ffffff;stroke-width:1.54233348;stroke-linecap:butt;stroke-linejoin:miter;stroke-miterlimit:4;stroke-dasharray:none;stroke-dashoffset:0;stroke-opacity:1"
       inkscape:connector-curvature="0" /><path
       id="path5773-6"
       d="m 321.5287,228.3412 9.30406,-7.83947"
       style="display:inline;fill:none;fill-opacity:1;fill-rule:evenodd;stroke:#ffffff;stroke-width:1.54233348;stroke-linecap:butt;stroke-linejoin:miter;stroke-miterlimit:4;stroke-dasharray:none;stroke-dashoffset:0;stroke-opacity:1"
       inkscape:connector-curvature="0" /><path
       id="path5771-6"
       d="m 315.5141,222.35035 7.79887,-9.33297"
       style="display:inline;fill:none;fill-opacity:1;fill-rule:evenodd;stroke:#ffffff;stroke-width:1.54233348;stroke-linecap:butt;stroke-linejoin:miter;stroke-miterlimit:4;stroke-dasharray:none;stroke-dashoffset:0;stroke-opacity:1"
       inkscape:connector-curvature="0" /><path
       id="path5769-0"
       d="m 308.53477,217.52225 6.06326,-10.55157"
       style="display:inline;fill:none;fill-opacity:1;fill-rule:evenodd;stroke:#ffffff;stroke-width:1.54233348;stroke-linecap:butt;stroke-linejoin:miter;stroke-miterlimit:4;stroke-dasharray:none;stroke-dashoffset:0;stroke-opacity:1"
       inkscape:connector-curvature="0" /><path
       id="path5639-4"
       d="m 300.84244,213.94178 4.13403,-11.43075"
       style="display:inline;fill:none;fill-opacity:1;fill-rule:evenodd;stroke:#ffffff;stroke-width:1.54233348;stroke-linecap:butt;stroke-linejoin:miter;stroke-miterlimit:4;stroke-dasharray:none;stroke-dashoffset:0;stroke-opacity:1"
       inkscape:connector-curvature="0" /><path
       inkscape:connector-curvature="0"
       id="text5666-9"
       d="m 279.88352,223.87506 -0.0225,-11.04031 1.49865,-0.003 5.8165,8.65624 -0.0177,-8.66808 1.40075,-0.003 0.0225,11.04031 -1.49865,0.003 -5.81651,-8.66377 0.0177,8.67561 -1.40075,0.003"
       style="font-style:normal;font-variant:normal;font-weight:normal;font-stretch:normal;font-size:30px;font-family:Arial;-inkscape-font-specification:Arial;display:inline;fill:#ffffff;fill-opacity:1;stroke:none;stroke-width:1px;stroke-linecap:butt;stroke-linejoin:miter;stroke-opacity:1" /><path
       inkscape:connector-curvature="0"
       id="text5670-8"
       d="m 288.75257,299.46396 -1.37841,0.11768 c -0.0641,-0.55241 -0.21382,-1.00708 -0.44906,-1.36401 -0.24028,-0.35194 -0.61122,-0.63888 -1.11283,-0.86081 -0.50162,-0.21691 -1.06621,-0.326 -1.69379,-0.32729 -0.55728,-9.2e-4 -1.04947,0.0807 -1.47656,0.24551 -0.42709,0.16481 -0.74385,0.39009 -0.95029,0.67584 -0.21145,0.29076 -0.31752,0.60685 -0.31823,0.94825 -8.4e-4,0.34642 0.0991,0.64786 0.29939,0.90433 0.2003,0.26148 0.53121,0.48054 0.99274,0.65722 0.29599,0.11607 0.95081,0.29564 1.96448,0.5387 1.01366,0.24808 1.7236,0.48048 2.12983,0.6972 0.5266,0.2772 0.92002,0.61941 1.18027,1.02662 0.2552,0.4122 0.38229,0.87185 0.38125,1.37894 -9.1e-4,0.55727 -0.16034,1.07658 -0.47763,1.55792 -0.31729,0.48635 -0.77994,0.85442 -1.38794,1.10422 -0.60801,0.24978 -1.28353,0.37391 -2.02659,0.37241 -0.81835,-0.002 -1.53854,-0.1362 -2.16056,-0.40355 -0.62703,-0.26237 -1.10822,-0.64994 -1.44356,-1.16271 -0.33533,-0.5128 -0.51488,-1.09305 -0.53867,-1.74075 l 1.40096,-0.10257 c 0.0739,0.69801 0.32887,1.22569 0.76492,1.58306 0.43106,0.35733 1.07082,0.53687 1.91929,0.53861 0.88364,0.002 1.52911,-0.16006 1.93645,-0.48556 0.4023,-0.3205 0.60392,-0.70919 0.60486,-1.16605 7.3e-4,-0.39664 -0.14162,-0.72328 -0.42727,-0.9799 -0.28063,-0.25663 -1.01309,-0.52171 -2.19741,-0.79524 -1.18934,-0.26853 -2.0047,-0.50365 -2.44612,-0.70537 -0.64202,-0.29753 -1.11569,-0.67505 -1.42103,-1.13254 -0.30533,-0.45248 -0.45739,-0.97494 -0.45619,-1.56737 10e-4,-0.58741 0.17054,-1.14185 0.50797,-1.6633 0.33744,-0.51644 0.82276,-0.9196 1.45595,-1.20951 0.62816,-0.28489 1.33636,-0.42654 2.12459,-0.42493 0.9991,0.002 1.83724,0.14936 2.51443,0.44194 0.67217,0.29257 1.20095,0.73044 1.58634,1.31362 0.38037,0.58819 0.57984,1.25132 0.59842,1.98939"
       style="font-style:normal;font-variant:normal;font-weight:normal;font-stretch:normal;font-size:30px;font-family:Arial;-inkscape-font-specification:Arial;display:inline;fill:#ffffff;fill-opacity:1;stroke:none;stroke-width:1px;stroke-linecap:butt;stroke-linejoin:miter;stroke-opacity:1" /><path
       inkscape:connector-curvature="0"
       id="text5674-0"
       d="m 248.61961,255.6265 -11.04629,-2.90698 0.003,1.49865 7.24063,1.66462 c 0.75848,0.17919 1.51189,0.33329 2.26023,0.4623 -1.17927,0.28356 -1.85922,0.45063 -2.03987,0.50121 l -7.45131,2.11635 0.004,1.76223 5.59117,1.57008 c 1.3865,0.39379 2.68993,0.6773 3.91029,0.85054 -0.69757,0.14199 -1.49798,0.32688 -2.40123,0.55466 l -7.09059,1.7466 0.003,1.46853 11.03413,-3.04997 -0.003,-1.40828 -8.41678,-2.30988 c -0.70328,-0.19437 -1.13528,-0.30897 -1.29602,-0.34378 0.50685,-0.11651 0.9384,-0.22534 1.29465,-0.32647 l 8.40725,-2.35929 -0.003,-1.49112"
       style="font-style:normal;font-variant:normal;font-weight:normal;font-stretch:normal;font-size:30px;font-family:Arial;-inkscape-font-specification:Arial;display:inline;fill:#ffffff;fill-opacity:1;stroke:none;stroke-width:1px;stroke-linecap:butt;stroke-linejoin:miter;stroke-opacity:1" /><path
       inkscape:connector-curvature="0"
       id="text5678-3"
       d="m 331.39763,255.37734 -11.04031,0.0225 0.0163,7.98276 1.30285,-0.003 -0.0133,-6.52177 3.38138,-0.007 0.0125,6.10756 1.29532,-0.003 -0.0125,-6.10757 3.75793,-0.008 0.0138,6.77782 1.30284,-0.003 -0.0168,-8.23882"
       style="font-style:normal;font-variant:normal;font-weight:normal;font-stretch:normal;font-size:30px;font-family:Arial;-inkscape-font-specification:Arial;display:inline;fill:#ffffff;fill-opacity:1;stroke:none;stroke-width:1px;stroke-linecap:butt;stroke-linejoin:miter;stroke-opacity:1" /><path
       inkscape:connector-curvature="0"
       id="text5682-9"
       d="m 300.30913,224.41181 0.98601,0.37203 c -0.4855,1.27751 -0.34836,2.13455 0.4114,2.57113 0.41035,0.23581 0.86507,0.26741 1.36418,0.0948 0.50143,-0.17664 0.91091,-0.54124 1.22842,-1.09379 0.29883,-0.52005 0.40116,-1.01791 0.307,-1.49357 -0.0942,-0.47566 -0.34237,-0.82906 -0.7446,-1.06019 -0.17065,-0.0981 -0.40526,-0.17883 -0.70385,-0.24232 l 0.65692,-0.90337 0.13317,0.0927 c 0.44284,0.25449 0.88062,0.32499 1.31333,0.21153 0.43268,-0.11345 0.77978,-0.3977 1.04127,-0.85275 0.24046,-0.41847 0.31728,-0.8202 0.23045,-1.20518 -0.0845,-0.38903 -0.29334,-0.67927 -0.62649,-0.87071 -0.34535,-0.19845 -0.71492,-0.23247 -1.10871,-0.10207 -0.38741,0.12869 -0.76887,0.44453 -1.14438,0.94753 l -0.7838,-0.70981 c 0.55267,-0.69844 1.14015,-1.12829 1.76245,-1.28954 0.62228,-0.16123 1.2158,-0.0796 1.78055,0.24492 0.59317,0.34086 0.9709,0.84976 1.13318,1.52668 0.16226,0.67694 0.0519,1.34856 -0.33092,2.01486 -0.23348,0.4063 -0.52948,0.7145 -0.888,0.92461 -0.35449,0.21246 -0.74154,0.31701 -1.16116,0.31368 0.24582,0.24935 0.41053,0.52234 0.49409,0.81896 0.0836,0.29663 0.0944,0.63521 0.0324,1.01576 -0.0619,0.38054 -0.20382,0.7638 -0.42561,1.14978 -0.4716,0.8207 -1.09973,1.3542 -1.88438,1.60049 -0.78232,0.24222 -1.51071,0.16956 -2.18514,-0.21799 -0.62569,-0.35954 -1.02516,-0.89174 -1.1984,-1.59659 -0.17325,-0.70485 -0.0697,-1.45873 0.31059,-2.26164"
       style="font-style:normal;font-variant:normal;font-weight:bold;font-stretch:normal;font-size:28px;font-family:'Arial Narrow';-inkscape-font-specification:'Arial Narrow Bold';display:inline;fill:#ffffff;fill-opacity:1;stroke:none;stroke-width:1px;stroke-linecap:butt;stroke-linejoin:miter;stroke-opacity:1" /><path
       inkscape:connector-curvature="0"
       id="text5686-9"
       d="m 323.43439,239.81663 -0.60357,-0.84439 c 0.40864,-0.35081 0.66204,-0.66573 0.76021,-0.94478 0.145,-0.40373 0.11993,-0.7738 -0.0752,-1.11024 -0.30332,-0.52287 -0.87094,-0.75429 -1.70286,-0.69425 -0.7169,0.0529 -1.62371,0.39473 -2.72046,1.02552 0.50903,-0.019 0.95337,0.0699 1.33304,0.26684 0.3837,0.19454 0.67666,0.46611 0.87887,0.81469 0.33622,0.57962 0.36549,1.2371 0.0878,1.97241 -0.2713,0.73701 -0.84674,1.36063 -1.7263,1.87085 -0.59584,0.34563 -1.20045,0.55008 -1.8138,0.61335 -0.60697,0.065 -1.12472,-0.006 -1.55326,-0.21224 -0.42854,-0.20646 -0.76156,-0.51438 -0.99903,-0.92376 -0.42792,-0.7377 -0.44824,-1.53851 -0.0609,-2.4024 0.3873,-0.8639 1.35716,-1.7461 2.90958,-2.64662 1.72266,-0.99928 3.09104,-1.4653 4.10515,-1.39807 1.01814,0.0649 1.74941,0.48036 2.1938,1.24643 0.32211,0.55531 0.40081,1.12992 0.23613,1.72384 -0.1583,0.59563 -0.57469,1.14323 -1.24914,1.64282 m -5.96925,-1.43726 c -0.64448,0.37385 -1.07513,0.82681 -1.29196,1.35887 -0.21278,0.52972 -0.20278,0.99521 0.03,1.3965 0.20456,0.35263 0.5712,0.55978 1.09994,0.62145 0.53108,0.0657 1.11886,-0.0883 1.76335,-0.46219 0.63231,-0.3668 1.04282,-0.78911 1.23153,-1.26694 0.18869,-0.47783 0.16783,-0.91536 -0.0626,-1.31259 -0.22573,-0.38912 -0.59753,-0.62849 -1.1154,-0.71813 -0.51147,-0.0879 -1.06309,0.0397 -1.65488,0.38303"
       style="font-style:normal;font-variant:normal;font-weight:bold;font-stretch:normal;font-size:28px;font-family:'Arial Narrow';-inkscape-font-specification:'Arial Narrow Bold';display:inline;fill:#ffffff;fill-opacity:1;stroke:none;stroke-width:1px;stroke-linecap:butt;stroke-linejoin:miter;stroke-opacity:1" /><path
       inkscape:connector-curvature="0"
       id="text5690-8"
       d="m 317.04787,275.06152 0.48127,-0.83754 6.49091,3.72988 c -0.1158,-0.32249 -0.19932,-0.71424 -0.25056,-1.17527 -0.0475,-0.45886 -0.0535,-0.8588 -0.0182,-1.1998 l 0.98467,0.56582 c -2.9e-4,0.61202 0.0891,1.20293 0.26854,1.77276 0.17726,0.57358 0.40579,1.03612 0.68559,1.38761 l -0.31218,0.54326 -8.33008,-4.78672 m -2.77363,7.09308 -0.97901,-0.56256 2.58522,-4.49893 c 0.40264,0.21631 0.77764,0.58988 1.12501,1.1207 0.34519,0.5346 0.65982,1.32764 0.94386,2.37912 0.32842,1.22753 0.63452,2.08343 0.91833,2.56769 0.28756,0.48642 0.61432,0.83477 0.98027,1.04507 0.42254,0.24279 0.83739,0.31557 1.24457,0.21834 0.40877,-0.0913 0.71721,-0.31806 0.92534,-0.68023 0.22328,-0.38859 0.26311,-0.78976 0.11947,-1.20351 -0.14364,-0.41377 -0.48332,-0.77456 -1.01904,-1.0824 l 0.6018,-0.79839 c 0.76134,0.51779 1.23033,1.08588 1.40694,1.70426 0.17821,0.62432 0.0841,1.25527 -0.28224,1.89286 -0.3989,0.69417 -0.93415,1.08416 -1.60573,1.16998 -0.67377,0.0896 -1.30869,-0.0369 -1.90477,-0.37941 -0.52818,-0.30352 -0.9554,-0.73468 -1.28165,-1.29352 -0.32248,-0.55667 -0.66301,-1.45745 -1.02161,-2.70231 -0.22315,-0.79067 -0.38488,-1.31268 -0.4852,-1.56604 -0.10248,-0.24959 -0.22014,-0.47277 -0.35296,-0.66954 l -1.9186,3.33882"
       style="font-style:normal;font-variant:normal;font-weight:bold;font-stretch:normal;font-size:26px;font-family:'Arial Narrow';-inkscape-font-specification:'Arial Narrow Bold';display:inline;fill:#ffffff;fill-opacity:1;stroke:none;stroke-width:1px;stroke-linecap:butt;stroke-linejoin:miter;stroke-opacity:1" /><path
       inkscape:connector-curvature="0"
       id="text5694-6"
       d="m 305.3864,289.08248 0.89984,-0.52197 4.0453,6.97374 c 0.0656,-0.36312 0.19869,-0.77346 0.39915,-1.23102 0.20281,-0.45352 0.41251,-0.82977 0.62912,-1.12876 l 0.61367,1.05792 c -0.32993,0.57057 -0.56462,1.16989 -0.70411,1.79795 -0.14354,0.63039 -0.17946,1.18483 -0.10777,1.6633 l -0.58367,0.33858 -5.19153,-8.94974 m -0.93177,3.66081 -0.88597,0.64395 c -0.40213,-0.52516 -0.81199,-0.8535 -1.22959,-0.98505 -0.41929,-0.12515 -0.79918,-0.089 -1.13966,0.10854 -0.4256,0.24687 -0.67956,0.65422 -0.7619,1.22204 -0.08,0.57186 0.0764,1.19624 0.46901,1.87315 0.36915,0.63636 0.8048,1.04185 1.30695,1.21645 0.50045,0.181 0.97563,0.141 1.42555,-0.11998 0.27157,-0.15754 0.48226,-0.38268 0.63206,-0.67542 0.14809,-0.28635 0.21228,-0.60529 0.19256,-0.9568 l 0.92271,-0.35646 1.94437,4.99086 -3.62976,2.10554 -0.60662,-1.04576 2.91232,-1.68936 -0.99438,-2.62476 c -0.2174,0.62448 -0.56929,1.0778 -1.05569,1.35995 -0.61205,0.35503 -1.29469,0.4016 -2.04792,0.13972 -0.75493,-0.2555 -1.38868,-0.82505 -1.90125,-1.70867 -0.50551,-0.87147 -0.71233,-1.75097 -0.62045,-2.63852 0.0902,-0.88115 0.51628,-1.54274 1.27831,-1.98477 0.63232,-0.36679 1.29432,-0.45827 1.98601,-0.27445 0.68999,0.19023 1.2911,0.65683 1.80334,1.3998"
       style="font-style:normal;font-variant:normal;font-weight:bold;font-stretch:normal;font-size:28px;font-family:'Arial Narrow';-inkscape-font-specification:'Arial Narrow Bold';display:inline;fill:#ffffff;fill-opacity:1;stroke:none;stroke-width:1px;stroke-linecap:butt;stroke-linejoin:miter;stroke-opacity:1" /><path
       inkscape:connector-curvature="0"
       id="text5698-6"
       d="m 265.91763,292.28517 0.60584,-1.05433 4.845,2.78409 c -0.23295,0.4336 -0.63525,0.83745 -1.20691,1.21154 -0.57572,0.37175 -1.42976,0.71058 -2.56213,1.01648 -1.32195,0.35367 -2.24369,0.68332 -2.7652,0.98895 -0.52384,0.30969 -0.89899,0.66158 -1.12546,1.05569 -0.26147,0.45503 -0.33985,0.9018 -0.23513,1.3403 0.0983,0.44021 0.34252,0.77238 0.73254,0.99652 0.41849,0.24046 0.85052,0.28335 1.2961,0.12867 0.44559,-0.1547 0.83414,-0.52051 1.16566,-1.09744 l 0.8598,0.64809 c -0.55762,0.81991 -1.16941,1.32497 -1.83536,1.51518 -0.67234,0.19191 -1.35183,0.0906 -2.03847,-0.30395 -0.74756,-0.42959 -1.16755,-1.00601 -1.25997,-1.72926 -0.0965,-0.7256 0.0397,-1.40936 0.40859,-2.05129 0.32687,-0.56881 0.7912,-1.02889 1.39302,-1.38023 0.5995,-0.34729 1.56956,-0.71402 2.9102,-1.10021 0.85148,-0.24031 1.41364,-0.41448 1.68649,-0.52251 0.26879,-0.11037 0.50914,-0.23707 0.72104,-0.38012 l -3.59565,-2.06617 m -3.72114,-3.54075 0.90196,0.5183 -4.01678,6.9902 c 0.34729,-0.12471 0.76918,-0.21465 1.26567,-0.26983 0.49416,-0.0511 0.92486,-0.0576 1.29209,-0.0195 l -0.60934,1.06042 c -0.6591,-2e-4 -1.29547,0.096 -1.90913,0.2892 -0.61771,0.19089 -1.11582,0.437 -1.49435,0.73832 l -0.58506,-0.33619 5.15494,-8.97087"
       style="font-style:normal;font-variant:normal;font-weight:bold;font-stretch:normal;font-size:28px;font-family:'Arial Narrow';-inkscape-font-specification:'Arial Narrow Bold';display:inline;fill:#ffffff;fill-opacity:1;stroke:none;stroke-width:1px;stroke-linecap:butt;stroke-linejoin:miter;stroke-opacity:1" /><path
       inkscape:connector-curvature="0"
       id="text5702-9"
       d="m 252.33795,278.48219 1.05184,-0.61015 2.80385,4.83359 c -0.41855,0.25904 -0.96887,0.40763 -1.65099,0.44578 -0.68446,0.0341 -1.5935,-0.0995 -2.72711,-0.40077 -1.32168,-0.35469 -2.28475,-0.53007 -2.88921,-0.52614 -0.6085,0.006 -1.10933,0.12345 -1.50252,0.35152 -0.45396,0.26333 -0.74522,0.61106 -0.87378,1.04316 -0.13495,0.43041 -0.0896,0.84017 0.13614,1.22929 0.24219,0.41749 0.59489,0.67064 1.05812,0.75947 0.46324,0.0888 0.98265,-0.0337 1.55821,-0.36757 l 0.42056,0.99117 c -0.89286,0.43125 -1.67521,0.56275 -2.34705,0.39449 -0.67823,-0.16997 -1.21602,-0.59745 -1.61339,-1.28246 -0.43262,-0.74581 -0.50813,-1.455 -0.22655,-2.12757 0.27926,-0.67662 0.73909,-1.20067 1.3795,-1.57217 0.56748,-0.32917 1.19965,-0.49544 1.89651,-0.4988 0.69282,-0.001 1.71629,0.16642 3.0704,0.50229 0.85757,0.21762 1.43151,0.34787 1.72181,0.39073 0.28796,0.0389 0.55946,0.0492 0.81451,0.0313 l -2.08085,-3.5872 m -1.1595,-4.42229 -2.13407,1.23792 1.83749,3.16767 -1.0032,0.58193 -7.71223,0.0127 -0.42322,-0.72959 5.77598,-3.35051 -0.57487,-0.99104 1.00319,-0.58193 0.57488,0.99103 2.13408,-1.23792 0.52197,0.89984 m -3.13727,1.81985 -4.01887,2.33126 5.34497,-0.0452 -1.3261,-2.28607"
       style="font-style:normal;font-variant:normal;font-weight:bold;font-stretch:normal;font-size:28px;font-family:'Arial Narrow';-inkscape-font-specification:'Arial Narrow Bold';display:inline;fill:#ffffff;fill-opacity:1;stroke:none;stroke-width:1px;stroke-linecap:butt;stroke-linejoin:miter;stroke-opacity:1" /><path
       inkscape:connector-curvature="0"
       id="text5706-1"
       d="m 247.70502,246.14597 0.37203,-0.98601 c 1.27751,0.48549 2.13455,0.34836 2.57113,-0.41141 0.23581,-0.41035 0.26742,-0.86507 0.0948,-1.36418 -0.17665,-0.50143 -0.54125,-0.9109 -1.0938,-1.22842 -0.52005,-0.29883 -1.01791,-0.40116 -1.49357,-0.30699 -0.47566,0.0942 -0.82906,0.34237 -1.06019,0.74459 -0.0981,0.17065 -0.17883,0.40526 -0.24232,0.70385 l -0.90337,-0.65692 0.0927,-0.13316 c 0.25448,-0.44285 0.32499,-0.88063 0.21153,-1.31333 -0.11345,-0.43269 -0.3977,-0.77979 -0.85275,-1.04128 -0.41847,-0.24046 -0.8202,-0.31728 -1.20518,-0.23045 -0.38903,0.0845 -0.67927,0.29334 -0.87072,0.62649 -0.19844,0.34535 -0.23246,0.71492 -0.10206,1.10871 0.12868,0.38741 0.44453,0.76887 0.94753,1.14438 l -0.70981,0.78381 c -0.69845,-0.55268 -1.12829,-1.14016 -1.28954,-1.76246 -0.16123,-0.62228 -0.0796,-1.2158 0.24492,-1.78054 0.34087,-0.59318 0.84976,-0.97091 1.52668,-1.13319 0.67693,-0.16226 1.34855,-0.052 2.01486,0.33092 0.4063,0.23348 0.7145,0.52948 0.92461,0.888 0.21246,0.35449 0.31702,0.74154 0.31367,1.16117 0.24936,-0.24584 0.52235,-0.41054 0.81897,-0.4941 0.29662,-0.0836 0.63521,-0.0944 1.01575,-0.0324 0.38055,0.062 0.76382,0.20382 1.14979,0.42561 0.8207,0.4716 1.3542,1.09973 1.60049,1.88439 0.24222,0.78232 0.16956,1.5107 -0.218,2.18514 -0.35953,0.62568 -0.89173,1.02515 -1.59658,1.19839 -0.70485,0.17325 -1.45874,0.0697 -2.26164,-0.31059 m 1.22666,-6.87488 c -1.4992,-0.86148 -2.51921,-1.71513 -3.06003,-2.56095 -0.53848,-0.84987 -0.58125,-1.6689 -0.12834,-2.45711 0.40157,-0.69881 1.03076,-1.06957 1.88757,-1.11226 1.03587,-0.0533 2.38465,0.3975 4.04637,1.35237 1.49108,0.85683 2.50906,1.70931 3.05394,2.55745 0.54082,0.84581 0.5836,1.66486 0.12834,2.45712 -0.40156,0.69881 -1.07203,1.07557 -2.01141,1.13026 -0.93704,0.0506 -2.24252,-0.40499 -3.91644,-1.36688 m 0.52881,-0.92024 c 1.45046,0.83348 2.5029,1.25449 3.15732,1.26304 0.6527,0.002 1.10395,-0.21413 1.35377,-0.64886 0.2358,-0.41035 0.18321,-0.89724 -0.15777,-1.46069 -0.34098,-0.56343 -1.2306,-1.25839 -2.66886,-2.08487 -1.45451,-0.8358 -2.50813,-1.25478 -3.16083,-1.25694 -0.65036,-0.006 -1.10278,0.21211 -1.35726,0.65496 -0.23346,0.40629 -0.17971,0.89115 0.16126,1.45459 0.34332,0.55938 1.2341,1.2523 2.67237,2.07877"
       style="font-style:normal;font-variant:normal;font-weight:bold;font-stretch:normal;font-size:28px;font-family:'Arial Narrow';-inkscape-font-specification:'Arial Narrow Bold';display:inline;fill:#ffffff;fill-opacity:1;stroke:none;stroke-width:1px;stroke-linecap:butt;stroke-linejoin:miter;stroke-opacity:1" /><path
       inkscape:connector-curvature="0"
       id="text5710-0"
       d="m 259.75915,229.27141 0.8152,-0.66789 c 0.86361,1.05921 1.67439,1.36896 2.43236,0.92928 0.40939,-0.23747 0.66413,-0.61547 0.76422,-1.134 0.0977,-0.52257 -0.0133,-1.05948 -0.33304,-1.61074 -0.30096,-0.51882 -0.68095,-0.85637 -1.13997,-1.01265 -0.45902,-0.15627 -0.88918,-0.11802 -1.29045,0.11474 -0.17025,0.0988 -0.35751,0.26156 -0.56178,0.4884 l -0.45389,-1.0206 0.14689,-0.069 c 0.44181,-0.25627 0.72177,-0.60014 0.83986,-1.03161 0.11809,-0.43145 0.0455,-0.87416 -0.21787,-1.32814 -0.24217,-0.41749 -0.55167,-0.68488 -0.92849,-0.80217 -0.37916,-0.12133 -0.73493,-0.0856 -1.06731,0.1072 -0.34453,0.19986 -0.55878,0.5029 -0.64274,0.90914 -0.0823,0.39985 7.9e-4,0.88812 0.2484,1.46483 l -1.00662,0.32388 c -0.32854,-0.82785 -0.40706,-1.55155 -0.23555,-2.1711 0.17151,-0.61953 0.53897,-1.09271 1.10238,-1.41954 0.59179,-0.34327 1.22136,-0.41594 1.88874,-0.21802 0.66737,0.19794 1.19386,0.62928 1.57946,1.29402 0.23512,0.40534 0.35403,0.81578 0.35673,1.23133 0.007,0.41322 -0.0962,0.8007 -0.30893,1.16244 0.33887,-0.0882 0.65763,-0.0944 0.9563,-0.0184 0.29865,0.0759 0.59728,0.23589 0.89587,0.4798 0.2986,0.24393 0.55957,0.55842 0.78294,0.94348 0.47495,0.81877 0.62291,1.6295 0.44387,2.43217 -0.18139,0.79862 -0.6085,1.39309 -1.28135,1.78339 -0.62422,0.36209 -1.28484,0.44194 -1.98189,0.23955 -0.69704,-0.20239 -1.29816,-0.66899 -1.80334,-1.3998 m 5.69087,-3.30113 0.81519,-0.6679 c 0.86361,1.0592 1.6744,1.36896 2.43237,0.92928 0.40939,-0.23747 0.66412,-0.61547 0.76422,-1.134 0.0977,-0.52257 -0.0133,-1.05948 -0.33304,-1.61074 -0.30097,-0.51882 -0.68096,-0.85637 -1.13998,-1.01265 -0.45902,-0.15627 -0.88917,-0.11802 -1.29045,0.11474 -0.17024,0.0988 -0.3575,0.26156 -0.56178,0.4884 l -0.45388,-1.0206 0.14689,-0.069 c 0.44181,-0.25627 0.72177,-0.60014 0.83986,-1.03161 0.11809,-0.43145 0.0455,-0.87416 -0.21787,-1.32814 -0.24218,-0.41748 -0.55167,-0.68488 -0.92849,-0.80217 -0.37916,-0.12133 -0.73493,-0.0856 -1.06731,0.10719 -0.34453,0.19987 -0.55878,0.50292 -0.64274,0.90915 -0.0823,0.39985 7.8e-4,0.88812 0.24839,1.46483 l -1.00661,0.32388 c -0.32854,-0.82785 -0.40706,-1.55155 -0.23555,-2.1711 0.17151,-0.61952 0.53897,-1.09271 1.10238,-1.41954 0.59178,-0.34327 1.22136,-0.41594 1.88873,-0.21802 0.66737,0.19794 1.19386,0.62928 1.57946,1.29402 0.23513,0.40534 0.35404,0.81578 0.35674,1.23133 0.007,0.41322 -0.0962,0.8007 -0.30893,1.16243 0.33886,-0.0882 0.65762,-0.0943 0.95629,-0.0184 0.29866,0.076 0.59729,0.23588 0.89588,0.4798 0.29859,0.24392 0.55957,0.55842 0.78294,0.94347 0.47494,0.81878 0.6229,1.62951 0.44387,2.43218 -0.18139,0.79862 -0.60851,1.39309 -1.28136,1.78339 -0.62421,0.36209 -1.28484,0.44194 -1.98188,0.23955 -0.69705,-0.20239 -1.29816,-0.66899 -1.80334,-1.3998"
       style="font-style:normal;font-variant:normal;font-weight:bold;font-stretch:normal;font-size:28px;font-family:'Arial Narrow';-inkscape-font-specification:'Arial Narrow Bold';display:inline;fill:#ffffff;fill-opacity:1;stroke:none;stroke-width:1px;stroke-linecap:butt;stroke-linejoin:miter;stroke-opacity:1" /></g></svg>