<?xml version="1.0" encoding="UTF-8" standalone="no"?>
<svg
   xmlns:dc="http://purl.org/dc/elements/1.1/"
   xmlns:cc="http://creativecommons.org/ns#"
   xmlns:rdf="http://www.w3.org/1999/02/22-rdf-syntax-ns#"
   xmlns:svg="http://www.w3.org/2000/svg"
   xmlns="http://www.w3.org/2000/svg"
   xmlns:xlink="http://www.w3.org/1999/xlink"
   xmlns:sodipodi="http://sodipodi.sourceforge.net/DTD/sodipodi-0.dtd"
   xmlns:inkscape="http://www.inkscape.org/namespaces/inkscape"
   version="1.1"
   x="0px"
   y="0px"
   width="400.667px"
   height="400.666px"
   viewBox="0 0 400.667 400.666"
   enable-background="new 0 0 400.667 400.666"
   xml:space="preserve"
   id="svg2"
   inkscape:version="0.91 r13725"
   sodipodi:docname="horizon_ball.svg"><metadata
     id="metadata98"><rdf:RDF><cc:Work
         rdf:about=""><dc:format>image/svg+xml</dc:format><dc:type
           rdf:resource="http://purl.org/dc/dcmitype/StillImage" /></cc:Work></rdf:RDF></metadata><defs
     id="defs96"><filter
       inkscape:collect="always"
       style="color-interpolation-filters:sRGB"
       id="filter14451"
       x="-0.040376201"
       width="1.0807524"
       y="-0.059172992"
       height="1.118346"><feGaussianBlur
         inkscape:collect="always"
         stdDeviation="3.7822463"
         id="feGaussianBlur14453" /></filter><linearGradient
       inkscape:collect="always"
       xlink:href="#linearGradient4861"
       id="linearGradient4946"
       gradientUnits="userSpaceOnUse"
       gradientTransform="translate(-3.9e-5,1e-5)"
       x1="282.66592"
       y1="92.273994"
       x2="282.66592"
       y2="25.103758" /><linearGradient
       inkscape:collect="always"
       id="linearGradient4861"><stop
         style="stop-color:#e3e4f3;stop-opacity:1"
         offset="0"
         id="stop4863" /><stop
         style="stop-color:#8491b4;stop-opacity:1"
         offset="1"
         id="stop4865" /></linearGradient><linearGradient
       inkscape:collect="always"
       xlink:href="#linearGradient4894"
       id="linearGradient4948"
       gradientUnits="userSpaceOnUse"
       gradientTransform="matrix(1,0,0,-1,0,184.54811)"
       x1="282.66592"
       y1="92.273994"
       x2="282.66592"
       y2="25.103758" /><linearGradient
       id="linearGradient4894"
       inkscape:collect="always"><stop
         id="stop4896"
         offset="0"
         style="stop-color:#987440;stop-opacity:1" /><stop
         id="stop4898"
         offset="1"
         style="stop-color:#d5bb9b;stop-opacity:1" /></linearGradient></defs><sodipodi:namedview
     pagecolor="#ffffff"
     bordercolor="#666666"
     borderopacity="1"
     objecttolerance="10"
     gridtolerance="10"
     guidetolerance="10"
     inkscape:pageopacity="0"
     inkscape:pageshadow="2"
     inkscape:window-width="1920"
     inkscape:window-height="1027"
     id="namedview94"
     showgrid="false"
     inkscape:zoom="2.3560772"
     inkscape:cx="252.22201"
     inkscape:cy="241.24112"
     inkscape:window-x="-8"
     inkscape:window-y="-8"
     inkscape:window-maximized="1"
     inkscape:current-layer="svg2" /><filter
     filterUnits="objectBoundingBox"
     id="AI_Shadow_1"><feGaussianBlur
       stdDeviation="5"
       result="blur"
       in="SourceAlpha"
       id="feGaussianBlur5" /><feOffset
       dy="0"
       dx="0"
       result="offsetBlurredAlpha"
       in="blur"
       id="feOffset7" /><feMerge
       id="feMerge9"><feMergeNode
         in="offsetBlurredAlpha"
         id="feMergeNode11" /><feMergeNode
         in="SourceGraphic"
         id="feMergeNode13" /></feMerge></filter><g
     transform="translate(1.4637399e-4,3.8032392e-4)"
     style="display:inline"
     id="g4219"><path
       transform="matrix(1.1106743,0,0,1.1106743,-386.09348,406.75475)"
       id="path4856-0-9-1-0"
       d="m 527.99137,-262.85328 c -62.08252,0 -112.41017,34.34011 -112.41017,76.70118 0,42.36106 50.32765,76.70312 112.41017,76.70312 62.08251,2e-5 112.41016,-34.34206 112.41016,-76.70312 0,-42.36107 -50.32764,-76.70119 -112.41016,-76.70118 z"
       style="display:inline;opacity:1;fill:#000000;fill-opacity:1;stroke:none;stroke-width:0.99999982;stroke-miterlimit:4;stroke-dasharray:none;stroke-dashoffset:0;stroke-opacity:1;filter:url(#filter14451)"
       inkscape:connector-curvature="0" /><g
       style="display:inline;opacity:1"
       id="g4905-8-2"
       transform="matrix(1.8491311,0,0,1.2617267,-322.35412,83.576096)"><path
         sodipodi:nodetypes="ccsc"
         inkscape:connector-curvature="0"
         id="path4856-0-9-9"
         d="m 350.18477,92.274 c -27.09316,0 -116.96781,0 -135.03777,0 0,-37.28965 30.22923,-67.51888 67.51888,-67.51888 37.28965,-1e-5 67.51889,30.22923 67.51889,67.51888 z"
         style="display:inline;opacity:1;fill:url(#linearGradient4946);fill-opacity:1;stroke:none;stroke-width:0.5;stroke-miterlimit:4;stroke-dasharray:none;stroke-dashoffset:0;stroke-opacity:1" /><path
         sodipodi:nodetypes="ccsc"
         inkscape:connector-curvature="0"
         id="path4856-2-1"
         d="m 350.18481,92.27412 c -27.09316,0 -116.96781,0 -135.03777,0 0,37.28965 30.22923,67.51888 67.51888,67.51888 37.28965,1e-5 67.51889,-30.22923 67.51889,-67.51888 z"
         style="display:inline;opacity:1;fill:url(#linearGradient4948);fill-opacity:1;stroke:none;stroke-width:0.5;stroke-miterlimit:4;stroke-dasharray:none;stroke-dashoffset:0;stroke-opacity:1" /></g><g
       id="g5199"
       style="display:inline"><path
         sodipodi:nodetypes="ccccc"
         inkscape:connector-curvature="0"
         id="rect5240-2-6"
         d="m 138.90783,274.16884 59.36165,-75.84332 4.03861,3.16096 -58.3496,74.55027 c -1.79618,-0.65143 -2.82862,-1.01542 -5.05066,-1.86791 z"
         inkscape:transform-center-y="19.509148"
         inkscape:transform-center-x="15.319167"
         style="display:inline;opacity:1;fill:#ffffff;fill-opacity:1;stroke:none;stroke-width:0.40003356;stroke-miterlimit:4;stroke-dasharray:none;stroke-dashoffset:0;stroke-opacity:1" /><path
         sodipodi:nodetypes="ccccc"
         inkscape:connector-curvature="0"
         id="rect5240-0-2"
         d="m 177.02999,237.85773 0,5.58807 c 15.53497,0 31.06995,0 46.60492,0 l 0,-5.58807 c -15.53497,0 -31.06995,0 -46.60492,0 z"
         style="display:inline;opacity:1;fill:#ffffff;fill-opacity:1;stroke:none;stroke-width:0.19305114;stroke-miterlimit:4;stroke-dasharray:none;stroke-dashoffset:0;stroke-opacity:1" /><path
         sodipodi:nodetypes="ccccc"
         inkscape:connector-curvature="0"
         id="rect5240-0-5-3"
         d="m 188.36233,222.49917 0,5.70522 c 7.98008,0 15.96017,0 23.94025,0 l 0,-5.70522 c -7.98008,0 -15.96017,0 -23.94025,0 z"
         style="display:inline;opacity:1;fill:#ffffff;fill-opacity:1;stroke:none;stroke-width:0.14089927;stroke-miterlimit:4;stroke-dasharray:none;stroke-dashoffset:0;stroke-opacity:1" /><path
         sodipodi:nodetypes="ccccc"
         inkscape:connector-curvature="0"
         id="rect5240-0-5-0-9"
         d="m 198.47988,208.66781 0,5.87877 c 1.23505,0 2.4701,0 3.70515,0 l 0,-5.87877 c -1.23505,0 -2.4701,0 -3.70515,0 z"
         style="display:inline;opacity:1;fill:#ffffff;fill-opacity:1;stroke:none;stroke-width:0.06144896;stroke-miterlimit:4;stroke-dasharray:none;stroke-dashoffset:0;stroke-opacity:1" /><path
         sodipodi:nodetypes="ccccc"
         inkscape:connector-curvature="0"
         id="rect5240-31-4"
         d="m 89.888923,239.75338 109.531387,-42.24395 1.84546,4.78498 -107.941109,41.63062 c -1.181935,-1.52064 -1.924421,-2.16586 -3.435738,-4.17165 z"
         inkscape:transform-center-y="10.067296"
         inkscape:transform-center-x="26.211333"
         style="display:inline;opacity:1;fill:#ffffff;fill-opacity:1;stroke:none;stroke-width:0.40003356;stroke-miterlimit:4;stroke-dasharray:none;stroke-dashoffset:0;stroke-opacity:1" /><path
         sodipodi:nodetypes="ccccc"
         inkscape:connector-curvature="0"
         id="rect5330-2"
         d="m 190.90619,176.00893 0,4.24312 18.85252,0 0,-4.24312 z"
         style="opacity:1;fill:#000000;fill-opacity:1;stroke:none;stroke-width:0.5;stroke-miterlimit:4;stroke-dasharray:none;stroke-dashoffset:0;stroke-opacity:1" /><path
         sodipodi:nodetypes="ccccc"
         inkscape:connector-curvature="0"
         id="rect5332-2"
         d="m 180.89567,162.68281 0,4.62057 38.8736,0 0,-4.62057 z"
         style="opacity:1;fill:#000000;fill-opacity:1;stroke:none;stroke-width:0.2;stroke-miterlimit:4;stroke-dasharray:none;stroke-dashoffset:0;stroke-opacity:1" /><path
         sodipodi:nodetypes="ccccc"
         inkscape:connector-curvature="0"
         id="rect5240-2-9-7"
         d="m 261.7579,274.16944 -59.36165,-75.84332 -4.03861,3.16096 58.3496,74.55027 c 1.79618,-0.65143 2.82862,-1.01542 5.05066,-1.86791 z"
         inkscape:transform-center-y="19.509148"
         inkscape:transform-center-x="15.319167"
         style="display:inline;opacity:1;fill:#ffffff;fill-opacity:1;stroke:none;stroke-width:0.40003356;stroke-miterlimit:4;stroke-dasharray:none;stroke-dashoffset:0;stroke-opacity:1" /><path
         sodipodi:nodetypes="ccccc"
         inkscape:connector-curvature="0"
         id="rect5240-31-6-8"
         d="m 310.77681,239.75398 -109.53139,-42.24394 -1.84545,4.78498 107.9411,41.63061 c 1.18193,-1.52064 1.92442,-2.16586 3.43574,-4.17165 z"
         inkscape:transform-center-y="10.067296"
         inkscape:transform-center-x="26.211333"
         style="display:inline;opacity:1;fill:#ffffff;fill-opacity:1;stroke:none;stroke-width:0.40003356;stroke-miterlimit:4;stroke-dasharray:none;stroke-dashoffset:0;stroke-opacity:1" /><path
         sodipodi:nodetypes="ccccc"
         inkscape:connector-curvature="0"
         id="rect5240-9"
         d="m 75.537812,197.34848 c -0.07264,1.69912 -0.08885,3.40599 0,5.1282 83.196428,0 166.392858,0 249.589288,0 0.0889,-1.72221 0.0726,-3.42908 0,-5.1282 -83.19643,0 -166.39286,0 -249.589288,0 z"
         style="opacity:1;fill:#ffffff;fill-opacity:1;stroke:none;stroke-width:0.40003356;stroke-miterlimit:4;stroke-dasharray:none;stroke-dashoffset:0;stroke-opacity:1" /></g><path
       id="path4856-0-9-1-3"
       d="m 200.33293,114.81012 c -68.95345,0 -124.851074,38.14068 -124.851074,85.19003 0,47.04934 55.897624,85.19219 124.851074,85.19219 68.95345,2e-5 124.85108,-38.14285 124.85108,-85.19219 0,-47.04935 -55.89762,-85.19004 -124.85108,-85.19003 z"
       style="display:inline;opacity:1;fill:none;fill-opacity:1;stroke:#000000;stroke-width:0.83300573;stroke-miterlimit:4;stroke-dasharray:none;stroke-dashoffset:0;stroke-opacity:1"
       inkscape:connector-curvature="0" /></g></svg>