<?xml version="1.0" encoding="UTF-8" standalone="no"?>
<svg
   xmlns:dc="http://purl.org/dc/elements/1.1/"
   xmlns:cc="http://creativecommons.org/ns#"
   xmlns:rdf="http://www.w3.org/1999/02/22-rdf-syntax-ns#"
   xmlns:svg="http://www.w3.org/2000/svg"
   xmlns="http://www.w3.org/2000/svg"
   xmlns:xlink="http://www.w3.org/1999/xlink"
   xmlns:sodipodi="http://sodipodi.sourceforge.net/DTD/sodipodi-0.dtd"
   xmlns:inkscape="http://www.inkscape.org/namespaces/inkscape"
   version="1.1"
   id="Layer_2"
   x="0px"
   y="0px"
   width="400.66699"
   height="400.66599"
   viewBox="0 0 400.667 400.666"
   enable-background="new 0 0 400.667 400.666"
   xml:space="preserve"
   inkscape:version="0.91 r13725"
   sodipodi:docname="turn_coordinator_foreground.svg"><metadata
     id="metadata111"><rdf:RDF><cc:Work
         rdf:about=""><dc:format>image/svg+xml</dc:format><dc:type
           rdf:resource="http://purl.org/dc/dcmitype/StillImage" /><dc:title /></cc:Work></rdf:RDF></metadata><defs
     id="defs109"><linearGradient
       id="SVGID_18_-1"
       gradientUnits="userSpaceOnUse"
       x1="148.1084"
       y1="142.3994"
       x2="163.70171"
       y2="169.4077"><stop
         offset="0"
         style="stop-color:#404040"
         id="stop11209" /><stop
         offset="1"
         style="stop-color:#000000"
         id="stop11211" /></linearGradient><linearGradient
       inkscape:collect="always"
       id="linearGradient5132"><stop
         style="stop-color:#969696;stop-opacity:1"
         offset="0"
         id="stop5134" /><stop
         style="stop-color:#000000;stop-opacity:1"
         offset="1"
         id="stop5136" /></linearGradient><linearGradient
       inkscape:collect="always"
       id="linearGradient6296"><stop
         style="stop-color:#bcb8ae;stop-opacity:1;"
         offset="0"
         id="stop6298" /><stop
         style="stop-color:#5f5a4f;stop-opacity:1"
         offset="1"
         id="stop6300" /></linearGradient><linearGradient
       y2="169.4077"
       x2="163.70171"
       y1="142.3994"
       x1="148.1084"
       gradientUnits="userSpaceOnUse"
       id="linearGradient6221"><stop
         id="stop6223"
         style="stop-color:#404040"
         offset="0" /><stop
         id="stop6225"
         style="stop-color:#202020;stop-opacity:1"
         offset="1" /></linearGradient><pattern
       y="0"
       x="0"
       height="6"
       width="6"
       patternUnits="userSpaceOnUse"
       id="EMFhbasepattern" /><pattern
       y="0"
       x="0"
       height="6"
       width="6"
       patternUnits="userSpaceOnUse"
       id="EMFhbasepattern-7" /><linearGradient
       inkscape:collect="always"
       id="linearGradient5104"><stop
         style="stop-color:#373737;stop-opacity:1"
         offset="0"
         id="stop5106" /><stop
         style="stop-color:#000000;stop-opacity:1"
         offset="1"
         id="stop5108" /></linearGradient><linearGradient
       inkscape:collect="always"
       id="linearGradient6152"><stop
         style="stop-color:#302f2e;stop-opacity:1"
         offset="0"
         id="stop6154" /><stop
         style="stop-color:#c4c4c4;stop-opacity:1"
         offset="1"
         id="stop6156" /></linearGradient><radialGradient
       inkscape:collect="always"
       xlink:href="#linearGradient5104"
       id="radialGradient5110-8"
       cx="129.436"
       cy="259.69098"
       fx="129.436"
       fy="259.69098"
       r="64.547997"
       gradientTransform="matrix(5.3227606,-0.00556248,0.00516246,4.9400122,-489.92065,-1082.0451)"
       gradientUnits="userSpaceOnUse" /><radialGradient
       inkscape:collect="always"
       xlink:href="#linearGradient5132"
       id="radialGradient5742-9-64-3"
       cx="129.2859"
       cy="92.274101"
       fx="129.2859"
       fy="92.274101"
       r="72.725906"
       gradientUnits="userSpaceOnUse"
       gradientTransform="matrix(1.6514344,0,0,1.6514344,225.44836,107.25648)" /><radialGradient
       inkscape:collect="always"
       xlink:href="#linearGradient6296"
       id="radialGradient6302-8-1-1-4-5"
       cx="-22.804193"
       cy="31.47263"
       fx="-22.804193"
       fy="31.47263"
       r="6.5083065"
       gradientUnits="userSpaceOnUse"
       gradientTransform="translate(92.3125,2.0190639)" /><radialGradient
       inkscape:collect="always"
       xlink:href="#linearGradient6296"
       id="radialGradient6302-5-9-1-2-4-3"
       cx="-22.804193"
       cy="31.47263"
       fx="-22.804193"
       fy="31.47263"
       r="6.5083065"
       gradientUnits="userSpaceOnUse"
       gradientTransform="translate(92.3125,2.0190639)" /><radialGradient
       inkscape:collect="always"
       xlink:href="#linearGradient6296"
       id="radialGradient6302-4-7-4-3-92-8"
       cx="-22.804193"
       cy="31.47263"
       fx="-22.804193"
       fy="31.47263"
       r="6.5083065"
       gradientUnits="userSpaceOnUse"
       gradientTransform="translate(92.3125,2.0190639)" /><radialGradient
       inkscape:collect="always"
       xlink:href="#linearGradient6296"
       id="radialGradient6302-5-7-3-9-5-5-5"
       cx="-22.804193"
       cy="31.47263"
       fx="-22.804193"
       fy="31.47263"
       r="6.5083065"
       gradientUnits="userSpaceOnUse"
       gradientTransform="translate(92.3125,2.0190639)" /><linearGradient
       inkscape:collect="always"
       xlink:href="#linearGradient6152"
       id="linearGradient4552"
       gradientUnits="userSpaceOnUse"
       gradientTransform="matrix(2.2213482,0,0,2.2213482,-87.513876,-376.75243)"
       x1="99.359451"
       y1="222.21432"
       x2="182.67029"
       y2="306.00647" /></defs><sodipodi:namedview
     pagecolor="#ffffff"
     bordercolor="#666666"
     borderopacity="1"
     objecttolerance="10"
     gridtolerance="10"
     guidetolerance="10"
     inkscape:pageopacity="0"
     inkscape:pageshadow="2"
     inkscape:window-width="1920"
     inkscape:window-height="1142"
     id="namedview107"
     showgrid="false"
     inkscape:zoom="1.4142136"
     inkscape:cx="91.136801"
     inkscape:cy="276.85343"
     inkscape:window-x="0"
     inkscape:window-y="0"
     inkscape:window-maximized="1"
     inkscape:current-layer="Layer_2"
     showguides="false"
     inkscape:guide-bbox="true"><sodipodi:guide
       position="200.33204,362.05861"
       orientation="1,0"
       id="guide4595" /><sodipodi:guide
       position="361.57032,200.66407"
       orientation="0,1"
       id="guide4597" /><sodipodi:guide
       position="200.58204,361.66408"
       orientation="0,1"
       id="guide4601" /></sodipodi:namedview><path
     style="fill:#444547;fill-opacity:1;fill-rule:evenodd;stroke:none;stroke-width:1px;stroke-linecap:butt;stroke-linejoin:miter;stroke-opacity:1"
     d="M 7.21875 0 C 3.2192991 0 0 3.2017489 0 7.1796875 L 0 393.48633 C 0 397.46427 3.2192991 400.66602 7.21875 400.66602 L 393.44727 400.66602 C 397.44672 400.66602 400.66797 397.46427 400.66797 393.48633 L 400.66797 7.1796875 C 400.66797 3.2017489 397.44672 0 393.44727 0 L 7.21875 0 z M 200.33203 50.333984 A 149.66795 149.66795 0 0 1 350 200.00195 A 149.66795 149.66795 0 0 1 200.33203 349.66992 A 149.66795 149.66795 0 0 1 50.664062 200.00195 A 149.66795 149.66795 0 0 1 200.33203 50.333984 z "
     id="rect4007" /><path
     style="display:inline;opacity:1;fill:url(#radialGradient5110-8);fill-opacity:1;stroke:none;stroke-width:1;stroke-miterlimit:4;stroke-dasharray:none;stroke-dashoffset:0;stroke-opacity:1"
     d="m 200.3747,45.275005 c -78.57351,0.0011 -154.050146,76.263055 -154.051232,154.836565 0.0011,78.57352 75.477712,153.65747 154.051232,153.65854 78.57522,0.001 151.69837,-75.08333 151.69944,-153.65854 -0.001,-78.5752 -73.12425,-154.837876 -151.69944,-154.836565 z m 0,53.155817 c 56.15694,-5.33e-4 101.68127,45.523798 101.68074,101.680748 7.1e-4,56.15708 -45.52366,101.68161 -101.68074,101.68108 C 144.21755,301.79327 98.693064,256.26872 98.693775,200.11157 98.693242,143.95455 144.21768,98.4302 200.3747,98.430822 Z"
     id="path4414-9-5-2"
     inkscape:connector-curvature="0"
     sodipodi:nodetypes="scscsccccc" /><path
     inkscape:connector-curvature="0"
     style="display:inline;opacity:1;fill:none;fill-opacity:1;stroke:url(#linearGradient4552);stroke-width:2.22134829;stroke-miterlimit:4;stroke-dasharray:none;stroke-dashoffset:0;stroke-opacity:1"
     d="M 200.0064,98.430866 A 101.67978,101.67978 0 0 1 301.68714,200.11162 101.67978,101.67978 0 0 1 200.0064,301.79269 101.67978,101.67978 0 0 1 98.325486,200.11162 101.67978,101.67978 0 0 1 200.0064,98.430866 Z"
     id="path4414-9-5-0-5" /><rect
     y="196.23935"
     x="78.224327"
     height="7.5398932"
     width="18.684597"
     id="rect4826-5"
     style="fill:#ffffff;fill-opacity:1;stroke:#ffffff;stroke-width:0.73184764;stroke-miterlimit:4;stroke-dasharray:none;stroke-dashoffset:0;stroke-opacity:1" /><rect
     y="196.23976"
     x="303.17804"
     height="7.5398932"
     width="18.684597"
     id="rect4826-1-1"
     style="display:inline;fill:#ffffff;fill-opacity:1;stroke:#ffffff;stroke-width:0.73184764;stroke-miterlimit:4;stroke-dasharray:none;stroke-dashoffset:0;stroke-opacity:1" /><rect
     transform="matrix(0.95211233,0.30574844,-0.30574844,0.95211233,0,0)"
     y="127.46436"
     x="354.26227"
     height="5.3030782"
     width="18.684597"
     id="rect4826-1-7-0"
     style="display:inline;fill:#ffffff;fill-opacity:1;stroke:#ffffff;stroke-width:0.73184764;stroke-miterlimit:4;stroke-dasharray:none;stroke-dashoffset:0;stroke-opacity:1" /><rect
     transform="matrix(-0.95211233,0.30574844,0.30574844,0.95211233,0,0)"
     y="249.78973"
     x="-26.66366"
     height="5.3031669"
     width="18.684597"
     id="rect4826-1-7-9-8"
     style="display:inline;fill:#ffffff;fill-opacity:1;stroke:#ffffff;stroke-width:0.73184764;stroke-miterlimit:4;stroke-dasharray:none;stroke-dashoffset:0;stroke-opacity:1" /><path
     inkscape:connector-curvature="0"
     id="path6756-8"
     d="m 91.754626,263.7252 0,-18.45775 3.757567,0 0,15.32221 9.343127,0 0,3.13554 -13.100694,0 z"
     style="font-style:normal;font-variant:normal;font-weight:bold;font-stretch:normal;font-size:medium;line-height:125%;font-family:Arial;-inkscape-font-specification:'Arial Bold';letter-spacing:0px;word-spacing:0px;fill:#ffffff;fill-opacity:1;stroke:none;stroke-width:1px;stroke-linecap:butt;stroke-linejoin:miter;stroke-opacity:1" /><path
     inkscape:connector-curvature="0"
     id="path6759-8"
     d="m 294.98184,263.72464 0,-18.61007 7.90865,0 q 2.9832,0 4.32883,0.50778 1.35831,0.49507 2.17075,1.77724 0.81246,1.28214 0.81246,2.9324 0,2.0946 -1.23139,3.46559 -1.23136,1.35831 -3.68139,1.71377 1.21867,0.71088 2.00574,1.56141 0.79975,0.85053 2.14536,3.02128 l 2.2723,3.6306 -4.49383,0 -2.71662,-4.0495 q -1.44716,-2.17077 -1.98033,-2.72933 -0.53317,-0.57124 -1.12982,-0.77436 -0.59664,-0.2157 -1.89148,-0.2157 l -0.76166,0 0,7.769 -3.75757,0 z m 3.75757,-10.7395 2.78009,0 q 2.70391,0 3.37673,-0.22851 0.67281,-0.22848 1.05363,-0.78704 0.38083,-0.55856 0.38083,-1.39641 0,-0.93938 -0.50778,-1.51063 -0.49507,-0.58394 -1.40906,-0.73628 -0.45702,-0.0635 -2.74201,-0.0635 l -2.93243,0 0,4.72234 z"
     style="font-style:normal;font-variant:normal;font-weight:bold;font-stretch:normal;font-size:medium;line-height:125%;font-family:Arial;-inkscape-font-specification:'Arial Bold';letter-spacing:0px;word-spacing:0px;fill:#ffffff;fill-opacity:1;stroke:none;stroke-width:1px;stroke-linecap:butt;stroke-linejoin:miter;stroke-opacity:1" /><path
     d="m 170.67301,315.10792 0,-9.17012 1.80149,0 3.7531,6.12383 0,-6.12383 1.72019,0 0,9.17012 -1.8578,0 -3.69681,-5.97998 0,5.97998 -1.72017,0 z"
     style="font-style:normal;font-variant:normal;font-weight:bold;font-stretch:normal;font-size:5.76705122px;line-height:125%;font-family:Arial;-inkscape-font-specification:'Arial Bold';text-align:center;letter-spacing:0px;word-spacing:0px;text-anchor:middle;fill:#ffffff;fill-opacity:1;stroke:none;stroke-width:1px;stroke-linecap:butt;stroke-linejoin:miter;stroke-opacity:1"
     id="path6762-1"
     inkscape:connector-curvature="0" /><path
     d="m 179.5366,310.57915 q 0,-1.40116 0.41908,-2.35194 0.31277,-0.70059 0.85071,-1.25731 0.54421,-0.55669 1.18849,-0.82567 0.85697,-0.36279 1.97665,-0.36279 2.02669,0 3.24019,1.25728 1.21976,1.25728 1.21976,3.49665 0,2.22059 -1.20726,3.4779 -1.20725,1.25101 -3.22768,1.25101 -2.04544,0 -3.2527,-1.24477 -1.20724,-1.25104 -1.20724,-3.44036 z m 1.90783,-0.0626 q 0,1.55754 0.71934,2.36447 0.71936,0.80066 1.82653,0.80066 1.10716,0 1.81399,-0.7944 0.7131,-0.80066 0.7131,-2.39575 0,-1.57631 -0.69433,-2.35194 -0.68806,-0.77565 -1.83276,-0.77565 -1.14471,0 -1.8453,0.78816 -0.70057,0.78189 -0.70057,2.36445 z"
     style="font-style:normal;font-variant:normal;font-weight:bold;font-stretch:normal;font-size:5.76705122px;line-height:125%;font-family:Arial;-inkscape-font-specification:'Arial Bold';text-align:center;letter-spacing:0px;word-spacing:0px;text-anchor:middle;fill:#ffffff;fill-opacity:1;stroke:none;stroke-width:1px;stroke-linecap:butt;stroke-linejoin:miter;stroke-opacity:1"
     id="path6764-1"
     inkscape:connector-curvature="0" /><path
     d="m 193.42312,315.10792 0,-9.17012 2.97121,0 q 1.68891,0 2.20184,0.13772 0.78814,0.20636 1.31984,0.90076 0.53168,0.68806 0.53168,1.78272 0,0.84447 -0.3065,1.41993 -0.3065,0.57548 -0.78189,0.907 -0.46915,0.32527 -0.95705,0.43163 -0.66305,0.13128 -1.92033,0.13128 l -1.20726,0 0,3.45913 -1.85154,0 z m 1.85154,-7.61882 0,2.60215 1.01333,0 q 1.09466,0 1.46372,-0.14394 0.36905,-0.14394 0.57548,-0.45036 0.21258,-0.30652 0.21258,-0.71309 0,-0.50043 -0.29399,-0.8257 -0.294,-0.32527 -0.74435,-0.40658 -0.33154,-0.0626 -1.33237,-0.0626 l -0.89449,0 z"
     style="font-style:normal;font-variant:normal;font-weight:bold;font-stretch:normal;font-size:5.76705122px;line-height:125%;font-family:Arial;-inkscape-font-specification:'Arial Bold';text-align:center;letter-spacing:0px;word-spacing:0px;text-anchor:middle;fill:#ffffff;fill-opacity:1;stroke:none;stroke-width:1px;stroke-linecap:butt;stroke-linejoin:miter;stroke-opacity:1"
     id="path6766-8"
     inkscape:connector-curvature="0" /><path
     d="m 201.92393,315.10792 0,-9.17012 1.85154,0 0,9.17012 -1.85154,0 z"
     style="font-style:normal;font-variant:normal;font-weight:bold;font-stretch:normal;font-size:5.76705122px;line-height:125%;font-family:Arial;-inkscape-font-specification:'Arial Bold';text-align:center;letter-spacing:0px;word-spacing:0px;text-anchor:middle;fill:#ffffff;fill-opacity:1;stroke:none;stroke-width:1px;stroke-linecap:butt;stroke-linejoin:miter;stroke-opacity:1"
     id="path6768-7"
     inkscape:connector-curvature="0" /><path
     d="m 207.59739,315.10792 0,-7.61882 -2.72102,0 0,-1.5513 7.28731,0 0,1.5513 -2.71475,0 0,7.61882 -1.85154,0 z"
     style="font-style:normal;font-variant:normal;font-weight:bold;font-stretch:normal;font-size:5.76705122px;line-height:125%;font-family:Arial;-inkscape-font-specification:'Arial Bold';text-align:center;letter-spacing:0px;word-spacing:0px;text-anchor:middle;fill:#ffffff;fill-opacity:1;stroke:none;stroke-width:1px;stroke-linecap:butt;stroke-linejoin:miter;stroke-opacity:1"
     id="path6770-6"
     inkscape:connector-curvature="0" /><path
     d="m 219.20702,311.73636 1.79523,0.56922 q -0.41284,1.50126 -1.37615,2.23312 -0.95702,0.72558 -2.43326,0.72558 -1.82651,0 -3.00249,-1.24477 -1.17598,-1.25104 -1.17598,-3.41533 0,-2.28941 1.18225,-3.55295 1.18222,-1.26979 3.10882,-1.26979 1.68265,0 2.73352,0.99456 0.62551,0.58799 0.93828,1.68889 l -1.83277,0.43787 q -0.1626,-0.71309 -0.68182,-1.12593 -0.51293,-0.41284 -1.25104,-0.41284 -1.0196,0 -1.65762,0.73185 -0.63177,0.73186 -0.63177,2.37073 0,1.73894 0.62551,2.47705 0.62551,0.73811 1.62634,0.73811 0.73813,0 1.26981,-0.46913 0.5317,-0.46915 0.76314,-1.47624 z"
     style="font-style:normal;font-variant:normal;font-weight:bold;font-stretch:normal;font-size:5.76705122px;line-height:125%;font-family:Arial;-inkscape-font-specification:'Arial Bold';text-align:center;letter-spacing:0px;word-spacing:0px;text-anchor:middle;fill:#ffffff;fill-opacity:1;stroke:none;stroke-width:1px;stroke-linecap:butt;stroke-linejoin:miter;stroke-opacity:1"
     id="path6772-8"
     inkscape:connector-curvature="0" /><path
     d="m 222.60358,315.10792 0,-9.17012 1.85153,0 0,3.60924 3.62802,0 0,-3.60924 1.85154,0 0,9.17012 -1.85154,0 0,-4.00957 -3.62802,0 0,4.00957 -1.85153,0 z"
     style="font-style:normal;font-variant:normal;font-weight:bold;font-stretch:normal;font-size:5.76705122px;line-height:125%;font-family:Arial;-inkscape-font-specification:'Arial Bold';text-align:center;letter-spacing:0px;word-spacing:0px;text-anchor:middle;fill:#ffffff;fill-opacity:1;stroke:none;stroke-width:1px;stroke-linecap:butt;stroke-linejoin:miter;stroke-opacity:1"
     id="path6774-2"
     inkscape:connector-curvature="0" /><path
     d="m 156.47373,329.10223 0,-9.1701 1.85151,0 0,9.1701 -1.85151,0 z"
     style="font-style:normal;font-variant:normal;font-weight:bold;font-stretch:normal;font-size:5.76705122px;line-height:125%;font-family:Arial;-inkscape-font-specification:'Arial Bold';text-align:center;letter-spacing:0px;word-spacing:0px;text-anchor:middle;fill:#ffffff;fill-opacity:1;stroke:none;stroke-width:1px;stroke-linecap:butt;stroke-linejoin:miter;stroke-opacity:1"
     id="path6777-9"
     inkscape:connector-curvature="0" /><path
     d="m 160.10172,329.10223 0,-9.1701 1.8015,0 3.75312,6.12383 0,-6.12383 1.72017,0 0,9.1701 -1.85778,0 -3.69682,-5.97996 0,5.97996 -1.72019,0 z"
     style="font-style:normal;font-variant:normal;font-weight:bold;font-stretch:normal;font-size:5.76705122px;line-height:125%;font-family:Arial;-inkscape-font-specification:'Arial Bold';text-align:center;letter-spacing:0px;word-spacing:0px;text-anchor:middle;fill:#ffffff;fill-opacity:1;stroke:none;stroke-width:1px;stroke-linecap:butt;stroke-linejoin:miter;stroke-opacity:1"
     id="path6779-6"
     inkscape:connector-curvature="0" /><path
     d="m 169.35315,329.10223 0,-9.1701 6.28646,0 0,1.55128 -4.43492,0 0,2.17056 3.82818,0 0,1.55128 -3.82818,0 0,3.89698 -1.85154,0 z"
     style="font-style:normal;font-variant:normal;font-weight:bold;font-stretch:normal;font-size:5.76705122px;line-height:125%;font-family:Arial;-inkscape-font-specification:'Arial Bold';text-align:center;letter-spacing:0px;word-spacing:0px;text-anchor:middle;fill:#ffffff;fill-opacity:1;stroke:none;stroke-width:1px;stroke-linecap:butt;stroke-linejoin:miter;stroke-opacity:1"
     id="path6781-6"
     inkscape:connector-curvature="0" /><path
     d="m 176.79682,324.57348 q 0,-1.40116 0.41911,-2.35194 0.31276,-0.70059 0.85071,-1.25731 0.5442,-0.55671 1.18848,-0.82567 0.85695,-0.36282 1.97664,-0.36282 2.02667,0 3.24019,1.25731 1.21974,1.25728 1.21974,3.49665 0,2.22059 -1.20723,3.47787 -1.20726,1.25104 -3.22769,1.25104 -2.04543,0 -3.25269,-1.24477 -1.20726,-1.25104 -1.20726,-3.44036 z m 1.90785,-0.0626 q 0,1.55754 0.71933,2.36447 0.71934,0.80066 1.82653,0.80066 1.10716,0 1.814,-0.79442 0.71309,-0.80066 0.71309,-2.39573 0,-1.57631 -0.69432,-2.35196 -0.68809,-0.77563 -1.83277,-0.77563 -1.14471,0 -1.84529,0.78814 -0.70057,0.78191 -0.70057,2.36447 z"
     style="font-style:normal;font-variant:normal;font-weight:bold;font-stretch:normal;font-size:5.76705122px;line-height:125%;font-family:Arial;-inkscape-font-specification:'Arial Bold';text-align:center;letter-spacing:0px;word-spacing:0px;text-anchor:middle;fill:#ffffff;fill-opacity:1;stroke:none;stroke-width:1px;stroke-linecap:butt;stroke-linejoin:miter;stroke-opacity:1"
     id="path6783-8"
     inkscape:connector-curvature="0" /><path
     d="m 187.13666,329.10223 0,-9.1701 3.89698,0 q 1.46997,0 2.13302,0.25021 0.6693,0.24395 1.06963,0.87572 0.40033,0.63178 0.40033,1.44494 0,1.03211 -0.60674,1.70769 -0.60676,0.66929 -1.81402,0.84444 0.6005,0.35029 0.98832,0.76939 0.39409,0.4191 1.05714,1.48873 l 1.11967,1.78898 -2.21433,0 -1.33862,-1.99539 q -0.71308,-1.06965 -0.9758,-1.34487 -0.26272,-0.28149 -0.55671,-0.38156 -0.294,-0.10641 -0.93204,-0.10641 l -0.37529,0 0,3.82816 -1.85154,0 z m 1.85154,-5.29187 1.36988,0 q 1.33234,0 1.66388,-0.11263 0.33151,-0.11262 0.51917,-0.38782 0.18771,-0.27523 0.18771,-0.68806 0,-0.46289 -0.25022,-0.74438 -0.24394,-0.28773 -0.69432,-0.36281 -0.22518,-0.0313 -1.35112,-0.0313 l -1.44494,0 0,2.32695 z"
     style="font-style:normal;font-variant:normal;font-weight:bold;font-stretch:normal;font-size:5.76705122px;line-height:125%;font-family:Arial;-inkscape-font-specification:'Arial Bold';text-align:center;letter-spacing:0px;word-spacing:0px;text-anchor:middle;fill:#ffffff;fill-opacity:1;stroke:none;stroke-width:1px;stroke-linecap:butt;stroke-linejoin:miter;stroke-opacity:1"
     id="path6785-1"
     inkscape:connector-curvature="0" /><path
     d="m 196.36305,329.10223 0,-9.1701 2.77107,0 1.66388,6.25518 1.64511,-6.25518 2.7773,0 0,9.1701 -1.72019,0 0,-7.21849 -1.82026,7.21849 -1.78272,0 -1.814,-7.21849 0,7.21849 -1.72019,0 z"
     style="font-style:normal;font-variant:normal;font-weight:bold;font-stretch:normal;font-size:5.76705122px;line-height:125%;font-family:Arial;-inkscape-font-specification:'Arial Bold';text-align:center;letter-spacing:0px;word-spacing:0px;text-anchor:middle;fill:#ffffff;fill-opacity:1;stroke:none;stroke-width:1px;stroke-linecap:butt;stroke-linejoin:miter;stroke-opacity:1"
     id="path6787-0"
     inkscape:connector-curvature="0" /><path
     d="m 215.3413,329.10223 -2.01416,0 -0.80067,-2.08298 -3.66553,0 -0.75688,2.08298 -1.96414,0 3.57173,-9.1701 1.95787,0 3.67178,9.1701 z m -3.40906,-3.62799 -1.26357,-3.40284 -1.23851,3.40284 2.50208,0 z"
     style="font-style:normal;font-variant:normal;font-weight:bold;font-stretch:normal;font-size:5.76705122px;line-height:125%;font-family:Arial;-inkscape-font-specification:'Arial Bold';text-align:center;letter-spacing:0px;word-spacing:0px;text-anchor:middle;fill:#ffffff;fill-opacity:1;stroke:none;stroke-width:1px;stroke-linecap:butt;stroke-linejoin:miter;stroke-opacity:1"
     id="path6789-3"
     inkscape:connector-curvature="0" /><path
     d="m 217.46806,329.10223 0,-7.61882 -2.72099,0 0,-1.55128 7.28729,0 0,1.55128 -2.71476,0 0,7.61882 -1.85154,0 z"
     style="font-style:normal;font-variant:normal;font-weight:bold;font-stretch:normal;font-size:5.76705122px;line-height:125%;font-family:Arial;-inkscape-font-specification:'Arial Bold';text-align:center;letter-spacing:0px;word-spacing:0px;text-anchor:middle;fill:#ffffff;fill-opacity:1;stroke:none;stroke-width:1px;stroke-linecap:butt;stroke-linejoin:miter;stroke-opacity:1"
     id="path6791-3"
     inkscape:connector-curvature="0" /><path
     d="m 223.15405,329.10223 0,-9.1701 1.85154,0 0,9.1701 -1.85154,0 z"
     style="font-style:normal;font-variant:normal;font-weight:bold;font-stretch:normal;font-size:5.76705122px;line-height:125%;font-family:Arial;-inkscape-font-specification:'Arial Bold';text-align:center;letter-spacing:0px;word-spacing:0px;text-anchor:middle;fill:#ffffff;fill-opacity:1;stroke:none;stroke-width:1px;stroke-linecap:butt;stroke-linejoin:miter;stroke-opacity:1"
     id="path6793-3"
     inkscape:connector-curvature="0" /><path
     d="m 226.38798,324.57348 q 0,-1.40116 0.4191,-2.35194 0.31274,-0.70059 0.85071,-1.25731 0.54418,-0.55671 1.18846,-0.82567 0.85698,-0.36282 1.97665,-0.36282 2.02669,0 3.24019,1.25731 1.21976,1.25728 1.21976,3.49665 0,2.22059 -1.20725,3.47787 -1.20724,1.25104 -3.22767,1.25104 -2.04546,0 -3.25269,-1.24477 -1.20726,-1.25104 -1.20726,-3.44036 z m 1.90782,-0.0626 q 0,1.55754 0.71934,2.36447 0.71937,0.80066 1.82653,0.80066 1.10716,0 1.814,-0.79442 0.71309,-0.80066 0.71309,-2.39573 0,-1.57631 -0.69432,-2.35196 -0.68806,-0.77563 -1.83277,-0.77563 -1.14471,0 -1.84527,0.78814 -0.7006,0.78191 -0.7006,2.36447 z"
     style="font-style:normal;font-variant:normal;font-weight:bold;font-stretch:normal;font-size:5.76705122px;line-height:125%;font-family:Arial;-inkscape-font-specification:'Arial Bold';text-align:center;letter-spacing:0px;word-spacing:0px;text-anchor:middle;fill:#ffffff;fill-opacity:1;stroke:none;stroke-width:1px;stroke-linecap:butt;stroke-linejoin:miter;stroke-opacity:1"
     id="path6795-9"
     inkscape:connector-curvature="0" /><path
     d="m 236.74029,329.10223 0,-9.1701 1.80152,0 3.7531,6.12383 0,-6.12383 1.72019,0 0,9.1701 -1.8578,0 -3.69682,-5.97996 0,5.97996 -1.72019,0 z"
     style="font-style:normal;font-variant:normal;font-weight:bold;font-stretch:normal;font-size:5.76705122px;line-height:125%;font-family:Arial;-inkscape-font-specification:'Arial Bold';text-align:center;letter-spacing:0px;word-spacing:0px;text-anchor:middle;fill:#ffffff;fill-opacity:1;stroke:none;stroke-width:1px;stroke-linecap:butt;stroke-linejoin:miter;stroke-opacity:1"
     id="path6797-9"
     inkscape:connector-curvature="0" /><path
     inkscape:connector-curvature="0"
     id="path6695-8"
     style="font-style:normal;font-variant:normal;font-weight:bold;font-stretch:normal;font-size:medium;line-height:125%;font-family:Arial;-inkscape-font-specification:'Arial Bold';text-align:center;letter-spacing:-0.76999998px;word-spacing:-1.50064945px;text-anchor:middle;fill:#ffffff;fill-opacity:1;stroke:none;stroke-width:1px;stroke-linecap:butt;stroke-linejoin:miter;stroke-opacity:1"
     d="m 155.51131,74.012786 5.50354,0 q 1.86165,0 2.83827,0.284844 1.3123,0.386559 2.2482,1.373348 0.93592,0.986767 1.42422,2.421158 0.48829,1.424196 0.48829,3.519815 0,1.841298 -0.45777,3.173952 -0.55951,1.627671 -1.59715,2.634807 -0.78331,0.762966 -2.11597,1.19022 -0.99696,0.315365 -2.66531,0.315365 l -5.66632,0 0,-14.913509 z m 3.01119,2.522873 0,9.877915 2.24821,0 q 1.26143,0 1.82095,-0.142389 0.73246,-0.183039 1.21059,-0.620556 0.48829,-0.437428 0.79348,-1.434369 0.3052,-1.007137 0.3052,-2.736524 0,-1.729408 -0.3052,-2.655132 -0.30519,-0.925747 -0.85453,-1.444566 -0.54934,-0.518818 -1.39369,-0.701923 -0.63071,-0.142389 -2.47203,-0.142389 l -1.35298,0 z" /><path
     inkscape:connector-curvature="0"
     id="path6697-9"
     style="font-style:normal;font-variant:normal;font-weight:bold;font-stretch:normal;font-size:medium;line-height:125%;font-family:Arial;-inkscape-font-specification:'Arial Bold';text-align:center;letter-spacing:-0.76999998px;word-spacing:-1.50064945px;text-anchor:middle;fill:#ffffff;fill-opacity:1;stroke:none;stroke-width:1px;stroke-linecap:butt;stroke-linejoin:miter;stroke-opacity:1"
     d="m 168.84662,88.926295 0,-2.858585 2.85861,0 0,2.858585 -2.85861,0 z" /><path
     inkscape:connector-curvature="0"
     id="path6699-2"
     style="font-style:normal;font-variant:normal;font-weight:bold;font-stretch:normal;font-size:medium;line-height:125%;font-family:Arial;-inkscape-font-specification:'Arial Bold';text-align:center;letter-spacing:-0.76999998px;word-spacing:-1.50064945px;text-anchor:middle;fill:#ffffff;fill-opacity:1;stroke:none;stroke-width:1px;stroke-linecap:butt;stroke-linejoin:miter;stroke-opacity:1"
     d="m 182.47696,83.443075 2.91963,0.925747 q -0.67141,2.441507 -2.23806,3.631726 -1.55645,1.180069 -3.95725,1.180069 -2.9705,0 -4.88299,-2.024403 -1.91252,-2.034599 -1.91252,-5.554437 0,-3.72329 1.92267,-5.778214 1.92269,-2.065099 5.05597,-2.065099 2.73649,0 4.44555,1.617497 1.01729,0.956245 1.52593,2.746674 l -2.98067,0.71212 q -0.2645,-1.159721 -1.10885,-1.831124 -0.83416,-0.671425 -2.03457,-0.671425 -1.65819,0 -2.69583,1.190243 -1.02746,1.190221 -1.02746,3.855528 0,2.828087 1.01729,4.028481 1.01729,1.200417 2.64496,1.200417 1.2004,0 2.06511,-0.762989 0.86468,-0.762966 1.24109,-2.400811 z" /><path
     inkscape:connector-curvature="0"
     id="path6701-9"
     style="font-style:normal;font-variant:normal;font-weight:bold;font-stretch:normal;font-size:medium;line-height:125%;font-family:Arial;-inkscape-font-specification:'Arial Bold';text-align:center;letter-spacing:-0.76999998px;word-spacing:-1.50064945px;text-anchor:middle;fill:#ffffff;fill-opacity:1;stroke:none;stroke-width:1px;stroke-linecap:butt;stroke-linejoin:miter;stroke-opacity:1"
     d="m 186.25989,88.926295 0,-2.858585 2.85861,0 0,2.858585 -2.85861,0 z" /><path
     inkscape:connector-curvature="0"
     id="path6703-1"
     style="font-style:normal;font-variant:normal;font-weight:bold;font-stretch:normal;font-size:medium;line-height:125%;font-family:Arial;-inkscape-font-specification:'Arial Bold';text-align:center;letter-spacing:-0.76999998px;word-spacing:-1.50064945px;text-anchor:middle;fill:#ffffff;fill-opacity:1;stroke:none;stroke-width:1px;stroke-linecap:butt;stroke-linejoin:miter;stroke-opacity:1"
     d="m 193.62344,88.926295 0,-14.913509 11.05798,0 0,2.522873 -8.04679,0 0,3.306211 7.48728,0 0,2.512722 -7.48728,0 0,4.058982 8.33164,0 0,2.512721 -11.34283,0 z" /><path
     inkscape:connector-curvature="0"
     id="path6705-6"
     style="font-style:normal;font-variant:normal;font-weight:bold;font-stretch:normal;font-size:medium;line-height:125%;font-family:Arial;-inkscape-font-specification:'Arial Bold';text-align:center;letter-spacing:-0.76999998px;word-spacing:-1.50064945px;text-anchor:middle;fill:#ffffff;fill-opacity:1;stroke:none;stroke-width:1px;stroke-linecap:butt;stroke-linejoin:miter;stroke-opacity:1"
     d="m 205.91096,88.926295 0,-14.791446 3.01117,0 0,12.278725 7.48728,0 0,2.512721 -10.49845,0 z" /><path
     inkscape:connector-curvature="0"
     id="path6707-6"
     style="font-style:normal;font-variant:normal;font-weight:bold;font-stretch:normal;font-size:medium;line-height:125%;font-family:Arial;-inkscape-font-specification:'Arial Bold';text-align:center;letter-spacing:-0.76999998px;word-spacing:-1.50064945px;text-anchor:middle;fill:#ffffff;fill-opacity:1;stroke:none;stroke-width:1px;stroke-linecap:butt;stroke-linejoin:miter;stroke-opacity:1"
     d="m 216.85564,88.926295 0,-14.913509 11.05798,0 0,2.522873 -8.04679,0 0,3.306211 7.48728,0 0,2.512722 -7.48728,0 0,4.058982 8.33163,0 0,2.512721 -11.34282,0 z" /><path
     inkscape:connector-curvature="0"
     id="path6709-7"
     style="font-style:normal;font-variant:normal;font-weight:bold;font-stretch:normal;font-size:medium;line-height:125%;font-family:Arial;-inkscape-font-specification:'Arial Bold';text-align:center;letter-spacing:-0.76999998px;word-spacing:-1.50064945px;text-anchor:middle;fill:#ffffff;fill-opacity:1;stroke:none;stroke-width:1px;stroke-linecap:butt;stroke-linejoin:miter;stroke-opacity:1"
     d="m 238.60398,83.443075 2.91963,0.925747 q -0.67142,2.441507 -2.23805,3.631726 -1.55645,1.180069 -3.95727,1.180069 -2.97048,0 -4.883,-2.024403 -1.91251,-2.034599 -1.91251,-5.554437 0,-3.72329 1.92269,-5.778214 1.92268,-2.065099 5.05593,-2.065099 2.73652,0 4.44558,1.617497 1.01729,0.956245 1.52594,2.746674 l -2.98067,0.71212 q -0.2645,-1.159721 -1.10886,-1.831124 -0.83418,-0.671425 -2.03457,-0.671425 -1.65819,0 -2.69582,1.190243 -1.02746,1.190221 -1.02746,3.855528 0,2.828087 1.01728,4.028481 1.01729,1.200417 2.64495,1.200417 1.2004,0 2.0651,-0.762989 0.86471,-0.762966 1.24111,-2.400811 z" /><path
     inkscape:connector-curvature="0"
     id="path6711-7"
     style="font-style:normal;font-variant:normal;font-weight:bold;font-stretch:normal;font-size:medium;line-height:125%;font-family:Arial;-inkscape-font-specification:'Arial Bold';text-align:center;letter-spacing:-0.76999998px;word-spacing:-1.50064945px;text-anchor:middle;fill:#ffffff;fill-opacity:1;stroke:none;stroke-width:1px;stroke-linecap:butt;stroke-linejoin:miter;stroke-opacity:1"
     d="m 242.38692,88.926295 0,-2.858585 2.85858,0 0,2.858585 -2.85858,0 z" /><g
     transform="matrix(2.2213482,0,0,2.2213482,-774.74209,-376.7525)"
     style="display:inline;opacity:1"
     id="g8627-2-7"><path
       inkscape:connector-curvature="0"
       id="path4405-3-1-1-8-7"
       d="m 438.95481,187.41583 a 72.225906,72.225906 0 0 0 -72.22462,72.22461 72.225906,72.225906 0 0 0 72.22462,72.22656 72.225906,72.225906 0 0 0 72.22655,-72.22656 72.225906,72.225906 0 0 0 -72.22655,-72.22461 z m 0,7.82812 a 64.397224,64.397224 0 0 1 64.39842,64.39649 64.397224,64.397224 0 0 1 -64.39842,64.39844 64.397224,64.397224 0 0 1 -64.39649,-64.39844 64.397224,64.397224 0 0 1 64.39649,-64.39649 z"
       style="display:inline;opacity:1;fill:url(#radialGradient5742-9-64-3);fill-opacity:1;stroke:#000000;stroke-width:0.50000012;stroke-miterlimit:4;stroke-dasharray:none;stroke-dashoffset:0;stroke-opacity:1" /><g
       transform="translate(309.67019,167.35)"
       id="g4793-4-9"
       style="display:inline"><circle
         r="6.2583065"
         cy="33.491692"
         cx="69.508308"
         id="circle4795-6-0"
         style="opacity:1;fill:url(#radialGradient6302-8-1-1-4-5);fill-opacity:1;stroke:#000000;stroke-width:0.5;stroke-miterlimit:4;stroke-dasharray:none;stroke-dashoffset:0;stroke-opacity:1" /><path
         sodipodi:nodetypes="ccccccccccccc"
         inkscape:connector-curvature="0"
         id="path4797-9-1"
         d="m 71.277054,29.627993 -2.186289,2.45737 -2.843143,-1.172009 -0.524371,0.859737 2.287624,2.082814 -1.128346,2.977167 0.857995,0.523309 2.128217,-2.367326 2.901216,1.081966 0.524371,-0.859737 -2.345697,-1.992771 1.186418,-3.067211 z"
         style="opacity:1;fill:#000000;fill-opacity:1;stroke:none;stroke-width:0.5;stroke-miterlimit:4;stroke-dasharray:none;stroke-dashoffset:0;stroke-opacity:1" /></g><g
       transform="matrix(1,0,0,-1,309.67018,352.39938)"
       style="display:inline"
       id="g4799-7-7"><circle
         r="6.2583065"
         cy="33.491692"
         cx="69.508308"
         id="circle4801-5-9"
         style="opacity:1;fill:url(#radialGradient6302-5-9-1-2-4-3);fill-opacity:1;stroke:#000000;stroke-width:0.5;stroke-miterlimit:4;stroke-dasharray:none;stroke-dashoffset:0;stroke-opacity:1" /><path
         sodipodi:nodetypes="ccccccccccccc"
         inkscape:connector-curvature="0"
         id="path4803-5-9"
         d="m 71.277054,29.627993 -2.186289,2.45737 -2.843143,-1.172009 -0.524371,0.859737 2.287624,2.082814 -1.128346,2.977167 0.857995,0.523309 2.128217,-2.367326 2.901216,1.081966 0.524371,-0.859737 -2.345697,-1.992771 1.186418,-3.067211 z"
         style="opacity:1;fill:#000000;fill-opacity:1;stroke:none;stroke-width:0.5;stroke-miterlimit:4;stroke-dasharray:none;stroke-dashoffset:0;stroke-opacity:1" /></g><g
       transform="matrix(-1,0,0,1,568.24181,167.35001)"
       style="display:inline"
       id="g4805-2-7"><circle
         r="6.2583065"
         cy="33.491692"
         cx="69.508308"
         id="circle4807-1-1"
         style="opacity:1;fill:url(#radialGradient6302-4-7-4-3-92-8);fill-opacity:1;stroke:#000000;stroke-width:0.5;stroke-miterlimit:4;stroke-dasharray:none;stroke-dashoffset:0;stroke-opacity:1" /><path
         sodipodi:nodetypes="ccccccccccccc"
         inkscape:connector-curvature="0"
         id="path4809-1-0"
         d="m 71.277054,29.627993 -2.186289,2.45737 -2.843143,-1.172009 -0.524371,0.859737 2.287624,2.082814 -1.128346,2.977167 0.857995,0.523309 2.128217,-2.367326 2.901216,1.081966 0.524371,-0.859737 -2.345697,-1.992771 1.186418,-3.067211 z"
         style="opacity:1;fill:#000000;fill-opacity:1;stroke:none;stroke-width:0.5;stroke-miterlimit:4;stroke-dasharray:none;stroke-dashoffset:0;stroke-opacity:1" /></g><g
       transform="matrix(-1,0,0,-1,568.24181,352.39939)"
       style="display:inline"
       id="g4811-8-5"><circle
         r="6.2583065"
         cy="33.491692"
         cx="69.508308"
         id="circle4813-2-7"
         style="opacity:1;fill:url(#radialGradient6302-5-7-3-9-5-5-5);fill-opacity:1;stroke:#000000;stroke-width:0.5;stroke-miterlimit:4;stroke-dasharray:none;stroke-dashoffset:0;stroke-opacity:1" /><path
         sodipodi:nodetypes="ccccccccccccc"
         inkscape:connector-curvature="0"
         id="path4816-1-9"
         d="m 71.277054,29.627993 -2.186289,2.45737 -2.843143,-1.172009 -0.524371,0.859737 2.287624,2.082814 -1.128346,2.977167 0.857995,0.523309 2.128217,-2.367326 2.901216,1.081966 0.524371,-0.859737 -2.345697,-1.992771 1.186418,-3.067211 z"
         style="opacity:1;fill:#000000;fill-opacity:1;stroke:none;stroke-width:0.5;stroke-miterlimit:4;stroke-dasharray:none;stroke-dashoffset:0;stroke-opacity:1" /></g></g></svg>