<?xml version="1.0" encoding="UTF-8" standalone="no"?>
<!-- Created with Inkscape (http://www.inkscape.org/) -->

<svg
   xmlns:dc="http://purl.org/dc/elements/1.1/"
   xmlns:cc="http://creativecommons.org/ns#"
   xmlns:rdf="http://www.w3.org/1999/02/22-rdf-syntax-ns#"
   xmlns:svg="http://www.w3.org/2000/svg"
   xmlns="http://www.w3.org/2000/svg"
   xmlns:xlink="http://www.w3.org/1999/xlink"
   xmlns:sodipodi="http://sodipodi.sourceforge.net/DTD/sodipodi-0.dtd"
   xmlns:inkscape="http://www.inkscape.org/namespaces/inkscape"
   version="1.1"
   width="600.94183"
   height="600.90863"
   id="svg6534"
   preserveAspectRatio="X200Y200 meet"
   inkscape:version="0.91 r13725"
   sodipodi:docname="turn_coordinator_sep_b_plate.svg">
  <metadata
     id="metadata4212">
    <rdf:RDF>
      <cc:Work
         rdf:about="">
        <dc:format>image/svg+xml</dc:format>
        <dc:type
           rdf:resource="http://purl.org/dc/dcmitype/StillImage" />
        <dc:title></dc:title>
      </cc:Work>
    </rdf:RDF>
  </metadata>
  <sodipodi:namedview
     pagecolor="#ffffff"
     bordercolor="#666666"
     borderopacity="1"
     objecttolerance="10"
     gridtolerance="10"
     guidetolerance="10"
     inkscape:pageopacity="0"
     inkscape:pageshadow="2"
     inkscape:window-width="1920"
     inkscape:window-height="1027"
     id="namedview4210"
     showgrid="false"
     inkscape:zoom="1.1263236"
     inkscape:cx="148.6858"
     inkscape:cy="336.65497"
     inkscape:window-x="-8"
     inkscape:window-y="-8"
     inkscape:window-maximized="1"
     inkscape:current-layer="layer3" />
  <defs
     id="defs6536">
    <linearGradient
       id="linearGradient7398">
      <stop
         id="stop7400"
         style="stop-color:#a8a8a8;stop-opacity:1"
         offset="0" />
      <stop
         id="stop7402"
         style="stop-color:#515151;stop-opacity:1"
         offset="1" />
    </linearGradient>
    <linearGradient
       id="linearGradient7376">
      <stop
         id="stop7378"
         style="stop-color:#1d1d1d;stop-opacity:1"
         offset="0" />
      <stop
         id="stop7380"
         style="stop-color:#acacac;stop-opacity:1"
         offset="1" />
    </linearGradient>
    <linearGradient
       id="linearGradient7357">
      <stop
         id="stop7359"
         style="stop-color:#222222;stop-opacity:1"
         offset="0" />
      <stop
         id="stop7361"
         style="stop-color:#888888;stop-opacity:1"
         offset="1" />
    </linearGradient>
    <linearGradient
       id="linearGradient7280">
      <stop
         id="stop7282"
         style="stop-color:#989898;stop-opacity:1"
         offset="0" />
      <stop
         id="stop7284"
         style="stop-color:#161616;stop-opacity:1"
         offset="1" />
    </linearGradient>
    <filter
       x="-0.012963847"
       y="-0.21167447"
       width="1.0259277"
       height="1.4233489"
       id="filter7272"
       style="color-interpolation-filters:sRGB">
      <feGaussianBlur
         id="feGaussianBlur7274"
         stdDeviation="1.3586542" />
    </filter>
    <filter
       x="-0.012963847"
       y="-0.21167447"
       width="1.0259277"
       height="1.4233489"
       id="filter7276"
       style="color-interpolation-filters:sRGB">
      <feGaussianBlur
         id="feGaussianBlur7278"
         stdDeviation="1.3586542" />
    </filter>
    <filter
       x="-0.025320208"
       y="-0.4602949"
       width="1.0506403"
       height="1.9205898"
       id="filter7296"
       style="color-interpolation-filters:sRGB">
      <feGaussianBlur
         id="feGaussianBlur7298"
         stdDeviation="2.5395566" />
    </filter>
    <filter
       id="filter7320"
       style="color-interpolation-filters:sRGB">
      <feGaussianBlur
         id="feGaussianBlur7322"
         stdDeviation="1.560427" />
    </filter>
    <filter
       x="-0.037216581"
       y="-1.1012783"
       width="1.0744332"
       height="3.2025566"
       id="filter7332"
       style="color-interpolation-filters:sRGB">
      <feGaussianBlur
         id="feGaussianBlur7334"
         stdDeviation="0.42103338" />
    </filter>
    <filter
       x="-0.03657512"
       y="-2.2894466"
       width="1.0731502"
       height="5.5788932"
       id="filter7336"
       style="color-interpolation-filters:sRGB">
      <feGaussianBlur
         id="feGaussianBlur7338"
         stdDeviation="0.37260582" />
    </filter>
    <filter
       id="filter7340"
       style="color-interpolation-filters:sRGB">
      <feGaussianBlur
         id="feGaussianBlur7342"
         stdDeviation="12.323861" />
    </filter>
    <filter
       x="-1.5192107"
       y="-0.16643283"
       width="4.0384216"
       height="1.3328657"
       id="filter7344"
       style="color-interpolation-filters:sRGB">
      <feGaussianBlur
         id="feGaussianBlur7346"
         stdDeviation="2.4271454" />
    </filter>
    <filter
       x="-0.15478399"
       y="-0.095661767"
       width="1.309568"
       height="1.1913235"
       id="filter7390"
       style="color-interpolation-filters:sRGB">
      <feGaussianBlur
         id="feGaussianBlur7392"
         stdDeviation="2.6718665" />
    </filter>
    <radialGradient
       cx="436.2619"
       cy="383.55603"
       r="21.234371"
       fx="436.2619"
       fy="383.55603"
       id="radialGradient7450"
       xlink:href="#linearGradient7280"
       gradientUnits="userSpaceOnUse"
       gradientTransform="matrix(0.99962961,0.03151084,-0.03165606,1.3463234,12.30346,-151.54305)" />
    <linearGradient
       x1="405.10495"
       y1="100.92"
       x2="429.60284"
       y2="491.39627"
       id="linearGradient7457"
       xlink:href="#linearGradient7376"
       gradientUnits="userSpaceOnUse"
       gradientTransform="matrix(1.0317265,0,0,1.0317265,-10.411468,-40.920085)" />
    <linearGradient
       x1="330.24167"
       y1="125.12653"
       x2="460.05554"
       y2="575.40216"
       id="linearGradient7460"
       xlink:href="#linearGradient7357"
       gradientUnits="userSpaceOnUse"
       gradientTransform="matrix(1.0046481,0,0,1.0046481,1.2957406,-32.018626)" />
    <linearGradient
       x1="346.57809"
       y1="73.12307"
       x2="545.03467"
       y2="529.28961"
       id="linearGradient7498"
       xlink:href="#linearGradient7398"
       gradientUnits="userSpaceOnUse"
       gradientTransform="matrix(0.99470475,0,0,0.99470475,2.5803031,1.3941645)" />
    <filter
       x="-0.027712595"
       y="-0.1791476"
       width="1.0554252"
       height="1.3582952"
       id="filter3669"
       style="color-interpolation-filters:sRGB">
      <feGaussianBlur
         id="feGaussianBlur3671"
         stdDeviation="3.4406603" />
    </filter>
    <filter
       filterUnits="objectBoundingBox"
       id="AI_Shadow_1">
      <feGaussianBlur
         stdDeviation="5"
         result="blur"
         in="SourceAlpha"
         id="feGaussianBlur4206" />
      <feOffset
         dy="0"
         dx="0"
         result="offsetBlurredAlpha"
         in="blur"
         id="feOffset4208" />
      <feMerge
         id="feMerge4210">
        <feMergeNode
           in="offsetBlurredAlpha"
           id="feMergeNode4212" />
        <feMergeNode
           in="SourceGraphic"
           id="feMergeNode4214" />
      </feMerge>
    </filter>
  </defs>
  <g
     transform="translate(-133.01464,4.6516878)"
     id="layer3"
     style="display:inline">
    <path
       d="m 696.90144,298.23878 c 0,144.28485 -116.96598,261.25084 -261.25083,261.25084 -144.28485,0 -261.25084,-116.96599 -261.25084,-261.25084 0,-144.28486 116.96599,-261.250835 261.25084,-261.250835 144.28485,0 261.25083,116.965975 261.25083,261.250835 z m -10.10301,0 c 0,138.70511 -112.44272,251.14782 -251.14782,251.14782 -138.70511,0 -251.14782,-112.44271 -251.14782,-251.14782 0,-138.70511 112.44271,-251.147823 251.14782,-251.147823 138.7051,0 251.14782,112.442713 251.14782,251.147823 z"
       id="path7394"
       style="fill:url(#linearGradient7498);fill-opacity:1;fill-rule:evenodd;stroke:#262626;stroke-width:3;stroke-miterlimit:4;stroke-dasharray:none;stroke-opacity:1"
       inkscape:connector-curvature="0" />
    <path
       d="m 558.84631,370.52822 c -47.33809,11.3318 -95.59887,14.35943 -144.50945,11.53893"
       id="path7256"
       style="opacity:0.7;fill:none;stroke:#fbf7d3;stroke-width:12;stroke-linecap:round;stroke-linejoin:miter;stroke-miterlimit:4;stroke-dasharray:none;stroke-opacity:1;filter:url(#filter7296)"
       inkscape:connector-curvature="0" />
    <path
       d="m 678.82249,328.72943 a 246.47722,246.47722 0 1 1 -492.95443,0 246.47722,246.47722 0 1 1 492.95443,0 z"
       transform="matrix(0.62780867,0,0,0.62780867,164.2205,91.859596)"
       id="path7132"
       style="fill:none;stroke:#000000;stroke-width:9.55705166;stroke-miterlimit:4;stroke-dasharray:none;stroke-opacity:1;filter:url(#filter7340)"
       inkscape:connector-curvature="0" />
    <path
       d="m 594.24456,298.23878 c 0,87.58902 -71.00493,158.59395 -158.59394,158.59395 -87.58902,0 -158.59395,-71.00493 -158.59395,-158.59395 0,-87.58902 71.00493,-158.59395 158.59395,-158.59395 87.58901,0 158.59394,71.00493 158.59394,158.59395 z m 70.71068,0 c 0,126.64145 -102.66318,229.30463 -229.30462,229.30463 -126.64145,0 -229.30463,-102.66318 -229.30463,-229.30463 0,-126.64145 102.66318,-229.304622 229.30463,-229.304622 126.64144,0 229.30462,102.663172 229.30462,229.304622 z"
       id="path7313"
       style="fill:#424242;fill-opacity:1;fill-rule:evenodd;stroke:none"
       inkscape:connector-curvature="0" />
    <text
       x="469.34506"
       y="99.67215"
       transform="scale(0.92836478,1.0771628)"
       id="text7190"
       xml:space="preserve"
       style="font-style:normal;font-variant:normal;font-weight:normal;font-stretch:semi-condensed;font-size:20.08385086px;line-height:100%;font-family:'DejaVu Sans';-inkscape-font-specification:'DejaVu Sans Semi-Condensed';text-align:center;writing-mode:lr-tb;text-anchor:middle;fill:#ffffff;fill-opacity:1;stroke:none"
       sodipodi:linespacing="100%"><tspan
         x="469.34506"
         y="99.67215"
         id="tspan7194">D.C.</tspan><tspan
         x="469.34506"
         y="119.756"
         id="tspan7198">ELEC.</tspan></text>
    <rect
       width="29.78681"
       height="14.517226"
       rx="2.1428571"
       ry="2.1428571"
       x="248.20827"
       y="311.11826"
       id="rect7208"
       style="fill:#ffffff;fill-opacity:1;fill-rule:evenodd;stroke:none" />
    <rect
       width="29.78681"
       height="14.517226"
       rx="2.1428571"
       ry="2.1428571"
       x="118.46992"
       y="437.55161"
       transform="matrix(0.93872509,-0.34466681,0.34466681,0.93872509,0,0)"
       id="rect7210"
       style="fill:#ffffff;fill-opacity:1;fill-rule:evenodd;stroke:none" />
    <text
       x="575.61615"
       y="425.35342"
       id="text7241"
       xml:space="preserve"
       style="font-style:normal;font-variant:normal;font-weight:normal;font-stretch:semi-condensed;font-size:31.2352314px;line-height:100%;font-family:'DejaVu Sans';-inkscape-font-specification:'DejaVu Sans Semi-Condensed';text-align:center;writing-mode:lr-tb;text-anchor:middle;fill:#ffffff;fill-opacity:1;stroke:none"
       sodipodi:linespacing="100%"><tspan
         x="575.61615"
         y="425.35342"
         id="tspan7243">R</tspan></text>
    <text
       x="295.46774"
       y="425.35342"
       id="text7245"
       xml:space="preserve"
       style="font-style:normal;font-variant:normal;font-weight:normal;font-stretch:semi-condensed;font-size:31.20715141px;line-height:100%;font-family:'DejaVu Sans';-inkscape-font-specification:'DejaVu Sans Semi-Condensed';text-align:center;writing-mode:lr-tb;text-anchor:middle;fill:#ffffff;fill-opacity:1;stroke:none"
       sodipodi:linespacing="100%"><tspan
         x="295.46774"
         y="425.35342"
         id="tspan7247">L</tspan></text>
    <rect
       width="29.78681"
       height="14.517226"
       rx="2.1428571"
       ry="2.1428571"
       x="-622.44928"
       y="311.11826"
       transform="scale(-1,1)"
       id="rect7249"
       style="fill:#ffffff;fill-opacity:1;fill-rule:evenodd;stroke:none" />
    <rect
       width="29.78681"
       height="14.517226"
       rx="2.1428571"
       ry="2.1428571"
       x="-698.83789"
       y="137.46478"
       transform="matrix(-0.93872509,-0.34466681,-0.34466681,0.93872509,0,0)"
       id="rect7251"
       style="fill:#ffffff;fill-opacity:1;fill-rule:evenodd;stroke:none" />
    <path
       d="m 678.82249,328.72943 a 246.47722,246.47722 0 1 1 -492.95443,0 246.47722,246.47722 0 1 1 492.95443,0 z"
       transform="matrix(0.92001039,0,0,0.92001039,37.888468,-4.19571)"
       id="path7348"
       style="fill:none;stroke:#000000;stroke-width:6.52166557;stroke-miterlimit:4;stroke-dasharray:none;stroke-opacity:1;filter:url(#filter7340)"
       inkscape:connector-curvature="0" />
    <path
       d="m 683.27347,298.23877 c 0,136.75834 -110.86454,247.62287 -247.62287,247.62287 -136.75833,0 -247.62287,-110.86453 -247.62287,-247.62287 0,-136.75833 110.86454,-247.622866 247.62287,-247.622866 136.75833,0 247.62287,110.864536 247.62287,247.622866 z m -20.86126,1e-5 c 0,125.23697 -101.52462,226.76161 -226.7616,226.76161 -125.23697,0 -226.7616,-101.52464 -226.7616,-226.76161 0,-125.23697 101.52463,-226.761603 226.7616,-226.761603 125.23698,0 226.7616,101.524633 226.7616,226.761603 z"
       id="path7352"
       style="fill:url(#linearGradient7460);fill-opacity:1;fill-rule:evenodd;stroke:#363636;stroke-width:0.99999994;stroke-miterlimit:4;stroke-opacity:1"
       inkscape:connector-curvature="0" />
    <path
       d="m 689.94768,298.23878 c 0,140.4444 -113.85268,254.29708 -254.29707,254.29708 -140.44439,0 -254.29707,-113.85268 -254.29707,-254.29708 0,-140.4444 113.85268,-254.297077 254.29707,-254.297077 140.44439,0 254.29707,113.852677 254.29707,254.297077 z m -9.83409,0 c 0,135.01317 -109.44981,244.46298 -244.46298,244.46298 -135.01317,0 -244.46298,-109.44981 -244.46298,-244.46298 0,-135.01317 109.44981,-244.462978 244.46298,-244.462978 135.01317,0 244.46298,109.449808 244.46298,244.462978 z"
       id="path7371"
       style="fill:url(#linearGradient7457);fill-opacity:1;fill-rule:evenodd;stroke:none"
       inkscape:connector-curvature="0" />
  </g>
</svg>
